<?xml version="1.0" standalone="no"?>
<!DOCTYPE svg PUBLIC "-//W3C//DTD SVG 20010904//EN"
 "http://www.w3.org/TR/2001/REC-SVG-20010904/DTD/svg10.dtd">
<svg version="1.0" xmlns="http://www.w3.org/2000/svg"
 width="1280.000000pt" height="972.000000pt" viewBox="0 0 1280.000000 972.000000"
 preserveAspectRatio="xMidYMid meet">
<metadata>
Created by potrace 1.15, written by Peter Selinger 2001-2017
</metadata>
<g transform="translate(0.000000,972.000000) scale(0.100000,-0.100000)"
fill="#ffffff" stroke="none">
<path d="M7242 9694 c-13 -28 -26 -166 -42 -459 -17 -304 -81 -890 -116 -1065
-8 -41 -42 -154 -74 -250 -32 -96 -62 -192 -65 -212 -4 -21 -12 -38 -19 -38
-6 0 -72 9 -146 20 -140 21 -230 26 -230 12 0 -21 290 -855 306 -881 l20 -30
209 317 c359 543 327 491 302 496 -12 2 -83 12 -157 21 -74 9 -145 19 -157 22
l-22 5 19 43 c28 64 75 262 99 410 43 271 150 1080 167 1260 10 113 -40 355
-74 355 -5 0 -14 -12 -20 -26z m-397 -2109 c113 -23 264 -33 376 -26 l95 6
-75 -90 c-132 -159 -269 -386 -343 -570 -15 -38 -16 -39 -17 -11 -2 51 -52
256 -87 358 -43 122 -97 241 -152 332 -23 37 -42 69 -42 70 0 1 37 -10 83 -25
45 -15 118 -35 162 -44z"/>
<path d="M10206 9327 c-14 -18 -53 -91 -87 -162 -220 -464 -316 -649 -497
-970 -112 -198 -159 -266 -286 -413 -59 -68 -118 -141 -133 -163 l-26 -39 -31
19 c-157 97 -277 161 -300 161 -17 0 -19 -18 -42 -410 -17 -306 -26 -560 -19
-560 5 0 183 122 553 380 106 74 206 142 222 151 34 19 30 26 -40 63 -30 16
-97 53 -148 83 l-92 54 51 57 c108 120 255 360 651 1062 238 421 261 473 275
643 5 66 4 77 -10 77 -9 0 -27 -15 -41 -33z m-1155 -1779 c99 -67 262 -146
368 -181 l74 -24 -84 -43 c-169 -85 -352 -216 -503 -360 -44 -41 -76 -66 -72
-55 22 54 47 247 53 395 5 151 -3 286 -24 391 l-6 34 54 -50 c31 -27 94 -76
140 -107z"/>
<path d="M2685 7920 c-19 -31 62 -70 430 -205 250 -91 765 -313 960 -413 50
-26 154 -92 232 -148 78 -57 162 -115 188 -129 25 -15 44 -33 41 -39 -2 -6
-36 -78 -75 -161 -39 -82 -71 -158 -71 -169 0 -18 12 -18 328 -11 266 6 561
18 630 27 18 2 16 7 -26 57 -35 42 -434 527 -529 643 -38 48 -63 60 -63 33 0
-8 -31 -80 -70 -161 l-69 -145 -23 22 c-42 40 -201 139 -328 203 -310 158
-1192 559 -1280 582 -81 21 -265 31 -275 14z m2139 -699 c100 -157 309 -391
423 -474 24 -16 42 -31 40 -33 -1 -1 -22 2 -47 7 -85 16 -350 22 -465 10 -96
-11 -250 -39 -310 -57 -19 -6 -19 -6 1 17 87 96 211 347 256 517 26 95 35 119
43 106 6 -9 32 -51 59 -93z"/>
<path d="M3351 6748 c-9 -25 -61 -334 -61 -361 0 -11 -492 -17 -570 -7 -277
35 -802 136 -1144 221 -317 79 -405 79 -310 1 20 -17 77 -50 128 -75 101 -51
152 -63 516 -122 790 -128 1149 -171 1290 -155 36 4 67 6 68 4 5 -3 -37 -280
-48 -323 -16 -60 -57 -68 410 84 157 51 338 110 403 130 l119 37 -29 30 c-15
17 -125 102 -243 190 -118 88 -277 207 -354 265 -76 57 -144 107 -151 109 -8
3 -17 -8 -24 -28z m419 -377 c58 -40 148 -96 200 -124 l95 -51 -100 -13 c-212
-26 -466 -108 -687 -221 -3 -2 7 31 23 72 63 161 99 368 99 562 l0 112 133
-132 c84 -85 170 -158 237 -205z"/>
<path d="M12645 6246 c-49 -19 -166 -66 -259 -105 -247 -105 -781 -296 -1021
-366 -49 -14 -177 -37 -283 -50 -106 -14 -211 -29 -234 -35 -22 -6 -41 -10
-42 -8 -1 2 -24 75 -51 162 -27 87 -57 168 -66 180 -17 20 -21 17 -235 -191
-263 -254 -464 -458 -464 -471 0 -5 28 -12 63 -16 34 -4 188 -25 342 -46 154
-22 334 -46 400 -54 66 -8 128 -18 138 -22 12 -4 17 -1 17 13 0 10 -4 23 -9
28 -5 6 -28 70 -51 144 -23 74 -44 139 -46 145 -3 8 30 16 93 23 181 22 435
97 1240 364 240 80 382 133 423 157 79 46 194 142 198 165 5 27 -50 21 -153
-17z m-1970 -435 c30 -162 90 -325 169 -461 28 -48 33 -61 19 -55 -38 14 -262
64 -348 76 -49 7 -170 13 -267 14 -98 0 -178 0 -178 1 0 1 24 17 54 37 156
104 354 303 464 467 l57 85 7 -35 c3 -19 14 -77 23 -129z"/>
<path d="M1915 4800 c-3 -5 -1 -19 5 -32 5 -13 24 -79 40 -148 17 -69 33 -133
36 -142 5 -16 -2 -18 -55 -18 -134 0 -322 -37 -786 -155 -865 -220 -908 -233
-1030 -314 -98 -64 -131 -94 -120 -110 15 -26 129 3 410 103 204 74 596 189
903 267 194 49 238 55 548 79 72 5 137 12 145 15 11 4 23 -28 52 -147 41 -165
60 -218 77 -218 6 0 47 33 93 73 45 40 192 168 327 284 202 174 320 283 306
283 -3 0 -903 179 -928 184 -10 2 -20 0 -23 -4z m183 -99 c182 -61 420 -101
596 -101 l89 0 -104 -69 c-196 -130 -364 -287 -477 -444 l-37 -52 -3 45 c-5
103 -25 222 -52 326 -28 106 -85 254 -116 301 -17 27 -18 36 -1 29 6 -2 54
-18 105 -35z"/>
<path d="M10205 4796 c-22 -7 -200 -64 -395 -125 -195 -62 -375 -122 -400
-133 -25 -12 -48 -20 -52 -20 -24 5 0 -20 50 -53 31 -21 165 -113 297 -205
132 -92 281 -194 330 -226 50 -32 93 -63 97 -69 11 -15 22 3 25 43 1 20 12 96
24 170 19 113 25 132 38 126 146 -64 331 -105 816 -183 681 -110 928 -143 995
-134 89 12 197 36 218 50 55 34 -16 56 -243 73 -314 24 -399 32 -595 56 -540
65 -699 96 -932 179 -99 36 -197 68 -217 71 l-37 6 28 171 c16 95 27 181 26
192 -4 25 -22 28 -73 11z m-22 -137 c-49 -146 -73 -303 -73 -471 l0 -140 -59
54 c-139 129 -313 246 -506 340 -99 48 -114 58 -87 58 41 0 244 44 342 74 101
31 282 109 350 151 30 18 58 34 61 34 3 1 -9 -45 -28 -100z"/>
<path d="M4235 3270 c-126 -4 -287 -9 -357 -11 -88 -3 -128 -8 -128 -16 0 -6
16 -40 36 -75 20 -34 56 -102 79 -149 l44 -86 -64 -16 c-118 -29 -278 -99
-585 -255 -346 -176 -801 -414 -905 -475 -103 -60 -265 -221 -265 -264 0 -39
79 -1 361 174 277 173 578 343 854 483 184 93 232 113 389 159 98 29 198 61
222 72 l44 18 71 -142 c72 -144 104 -197 118 -197 4 0 23 21 41 48 19 26 118
162 220 302 235 320 290 400 290 416 0 7 6 15 13 17 16 7 -192 5 -478 -3z
m333 -97 c-170 -176 -304 -378 -395 -593 l-11 -25 -7 30 c-23 96 -101 281
-162 385 -18 30 -62 93 -97 140 -35 47 -63 86 -62 87 1 1 45 -2 97 -8 140 -17
406 -4 562 25 71 14 132 27 135 30 3 3 8 6 10 6 3 0 -28 -35 -70 -77z"/>
<path d="M8410 3244 c0 -2 10 -24 22 -47 37 -72 359 -760 372 -794 15 -39 21
-35 81 42 21 28 68 85 103 127 l64 77 43 -57 c89 -120 374 -368 1013 -881 299
-239 320 -253 476 -307 111 -39 146 -30 101 25 -25 29 -95 80 -385 281 -231
160 -688 514 -821 637 -34 32 -105 110 -157 173 -52 63 -117 138 -145 166
l-49 52 104 126 c107 129 136 171 125 182 -3 3 -122 32 -264 64 -142 32 -330
75 -418 95 -152 34 -265 51 -265 39z m285 -129 c169 -51 374 -85 525 -85 l75
0 -35 -26 c-126 -95 -321 -334 -388 -476 -15 -31 -29 -57 -32 -57 -3 0 -22 52
-43 117 -61 187 -175 408 -288 559 l-39 52 70 -29 c38 -16 108 -40 155 -55z"/>
<path d="M6670 2938 c-12 -29 -83 -190 -157 -358 -75 -168 -149 -339 -165
-380 -17 -41 -35 -78 -40 -81 -19 -12 19 -14 190 -9 94 3 172 5 172 5 0 0 -9
-28 -19 -61 -36 -114 -45 -311 -32 -734 16 -519 39 -984 50 -1047 21 -107 99
-279 124 -270 18 6 12 214 -12 406 -36 286 -71 809 -71 1070 0 115 6 197 24
311 37 236 38 255 28 294 l-10 36 146 1 c148 1 256 9 268 21 3 4 -23 60 -59
125 -36 65 -124 228 -197 363 -131 244 -199 360 -211 360 -4 0 -17 -24 -29
-52z m57 -110 c59 -175 216 -450 332 -580 28 -31 51 -59 51 -61 0 -3 -15 -1
-32 5 -18 5 -111 12 -206 15 -182 6 -303 -5 -419 -37 -35 -9 -63 -16 -63 -15
0 2 19 34 42 71 105 174 219 455 250 619 7 35 14 62 16 60 3 -2 15 -37 29 -77z"/>
</g>
</svg>
