<svg width="1024" height="1024" viewBox="0 0 1024 1024" fill="none" xmlns="http://www.w3.org/2000/svg">
<rect width="1024" height="1024" fill="#DFD5EC"/>
<path d="M862 302H662C623.34 302 592 333.34 592 372C592 410.66 623.34 442 662 442H862C900.66 442 932 410.66 932 372C932 333.34 900.66 302 862 302Z" fill="#6200EE" fill-opacity="0.38"/>
<g filter="url(#filter0_dd_7_3451)">
<path fill-rule="evenodd" clip-rule="evenodd" d="M832 472C887.228 472 932 427.228 932 372C932 316.771 887.228 272 832 272C776.772 272 732 316.771 732 372C732 427.228 776.772 472 832 472Z" fill="#6200EE"/>
</g>
<path d="M861.655 600H661.911C623.3 600 592 631.34 592 670C592 708.66 623.3 740 661.911 740H861.655C900.266 740 931.566 708.66 931.566 670C931.566 631.34 900.266 600 861.655 600Z" fill="#212121" fill-opacity="0.08"/>
<g filter="url(#filter1_dd_7_3451)">
<path fill-rule="evenodd" clip-rule="evenodd" d="M691.872 770C747.03 770 791.745 725.228 791.745 670C791.745 614.771 747.03 570 691.872 570C636.714 570 592 614.771 592 670C592 725.228 636.714 770 691.872 770Z" fill="white"/>
</g>
<g filter="url(#filter2_d_7_3451)">
<rect x="90" y="175" width="421.511" height="673.389" rx="5.30739" fill="white"/>
<path d="M127.766 219.415C127.766 219.22 127.736 219.048 127.675 218.897C127.619 218.745 127.518 218.607 127.371 218.482C127.224 218.357 127.017 218.236 126.749 218.119C126.485 217.998 126.148 217.875 125.738 217.75C125.289 217.612 124.874 217.458 124.494 217.29C124.118 217.117 123.79 216.918 123.509 216.694C123.229 216.465 123.011 216.204 122.855 215.91C122.7 215.612 122.622 215.268 122.622 214.88C122.622 214.495 122.702 214.145 122.862 213.83C123.026 213.515 123.257 213.243 123.555 213.014C123.857 212.781 124.213 212.601 124.624 212.476C125.034 212.347 125.488 212.282 125.984 212.282C126.684 212.282 127.287 212.411 127.792 212.67C128.302 212.93 128.692 213.277 128.965 213.714C129.241 214.15 129.379 214.631 129.379 215.158H127.766C127.766 214.847 127.699 214.573 127.565 214.335C127.436 214.094 127.237 213.904 126.969 213.765C126.706 213.627 126.371 213.558 125.965 213.558C125.58 213.558 125.261 213.616 125.006 213.733C124.751 213.85 124.561 214.007 124.436 214.206C124.311 214.405 124.248 214.629 124.248 214.88C124.248 215.057 124.289 215.219 124.371 215.366C124.453 215.508 124.578 215.642 124.747 215.767C124.915 215.888 125.127 216.003 125.382 216.111C125.637 216.219 125.937 216.322 126.282 216.422C126.805 216.577 127.261 216.75 127.649 216.94C128.038 217.126 128.362 217.337 128.621 217.575C128.88 217.812 129.075 218.082 129.204 218.385C129.334 218.683 129.399 219.022 129.399 219.402C129.399 219.799 129.319 220.158 129.159 220.477C128.999 220.793 128.77 221.063 128.472 221.287C128.178 221.507 127.824 221.678 127.41 221.799C126.999 221.916 126.541 221.974 126.036 221.974C125.583 221.974 125.136 221.913 124.695 221.793C124.259 221.672 123.861 221.488 123.503 221.242C123.144 220.991 122.859 220.68 122.648 220.309C122.436 219.933 122.33 219.495 122.33 218.994H123.956C123.956 219.3 124.008 219.562 124.112 219.778C124.22 219.994 124.369 220.171 124.559 220.309C124.749 220.443 124.969 220.542 125.22 220.607C125.475 220.672 125.747 220.704 126.036 220.704C126.416 220.704 126.734 220.65 126.988 220.542C127.248 220.434 127.442 220.283 127.572 220.089C127.701 219.894 127.766 219.67 127.766 219.415ZM139.001 220.555V221.844H133.993V220.555H139.001ZM134.453 212.411V221.844H132.827V212.411H134.453ZM138.347 216.35V217.62H133.993V216.35H138.347ZM138.969 212.411V213.707H133.993V212.411H138.969ZM148.228 220.555V221.844H143.492V220.555H148.228ZM143.946 212.411V221.844H142.32V212.411H143.946ZM157.65 220.555V221.844H152.642V220.555H157.65ZM153.102 212.411V221.844H151.476V212.411H153.102ZM156.995 216.35V217.62H152.642V216.35H156.995ZM157.617 212.411V213.707H152.642V212.411H157.617ZM166.54 218.773H168.16C168.108 219.391 167.935 219.942 167.641 220.426C167.348 220.905 166.935 221.283 166.404 221.559C165.873 221.836 165.227 221.974 164.467 221.974C163.884 221.974 163.359 221.87 162.892 221.663C162.426 221.451 162.026 221.153 161.694 220.769C161.361 220.38 161.106 219.912 160.929 219.363C160.757 218.814 160.67 218.201 160.67 217.523V216.739C160.67 216.061 160.759 215.448 160.936 214.899C161.117 214.351 161.376 213.882 161.713 213.493C162.05 213.1 162.454 212.8 162.925 212.593C163.4 212.385 163.933 212.282 164.525 212.282C165.277 212.282 165.912 212.42 166.43 212.696C166.948 212.973 167.35 213.355 167.635 213.843C167.924 214.331 168.101 214.891 168.166 215.521H166.546C166.503 215.115 166.408 214.767 166.261 214.478C166.119 214.189 165.907 213.968 165.626 213.817C165.346 213.662 164.979 213.584 164.525 213.584C164.154 213.584 163.83 213.653 163.553 213.791C163.277 213.929 163.046 214.132 162.86 214.4C162.674 214.668 162.534 214.998 162.439 215.392C162.348 215.78 162.303 216.225 162.303 216.726V217.523C162.303 217.998 162.344 218.43 162.426 218.819C162.512 219.203 162.642 219.534 162.815 219.81C162.992 220.086 163.216 220.3 163.488 220.451C163.761 220.603 164.087 220.678 164.467 220.678C164.929 220.678 165.303 220.605 165.588 220.458C165.877 220.311 166.095 220.097 166.242 219.817C166.393 219.531 166.492 219.184 166.54 218.773ZM175.313 212.411V221.844H173.7V212.411H175.313ZM178.274 212.411V213.707H170.765V212.411H178.274ZM190.062 212.411V221.844H188.449V212.411H190.062ZM193.023 212.411V213.707H185.514V212.411H193.023ZM197.993 212.411V221.844H196.367V212.411H197.993ZM202.665 212.411H204.117L206.844 219.687L209.565 212.411H211.017L207.414 221.844H206.261L202.665 212.411ZM202.005 212.411H203.385L203.624 218.709V221.844H202.005V212.411ZM210.297 212.411H211.684V221.844H210.058V218.709L210.297 212.411ZM221.779 220.555V221.844H216.771V220.555H221.779ZM217.231 212.411V221.844H215.605V212.411H217.231ZM221.125 216.35V217.62H216.771V216.35H221.125ZM221.747 212.411V213.707H216.771V212.411H221.747Z" fill="#717370"/>
<g clip-path="url(#clip0_7_3451)">
<rect x="121.844" y="260.689" width="127.377" height="106.148" rx="5.30739" fill="#F2E7FE"/>
<path d="M203.166 285.864V289.637L181.288 338.689H174.213L196.055 291.378H167.465V285.864H203.166Z" fill="#6200EE"/>
</g>
<path d="M261.635 335.133C261.635 333.996 261.986 333.041 262.687 332.267C263.413 331.469 264.453 331.07 265.807 331.07C267.162 331.07 268.19 331.469 268.891 332.267C269.617 333.041 269.98 333.996 269.98 335.133C269.98 336.246 269.617 337.189 268.891 337.963C268.19 338.737 267.162 339.124 265.807 339.124C264.453 339.124 263.413 338.737 262.687 337.963C261.986 337.189 261.635 336.246 261.635 335.133ZM261.671 303.097C261.671 301.96 262.022 301.005 262.723 300.231C263.449 299.433 264.489 299.034 265.844 299.034C267.198 299.034 268.226 299.433 268.928 300.231C269.653 301.005 270.016 301.96 270.016 303.097C270.016 304.21 269.653 305.153 268.928 305.927C268.226 306.701 267.198 307.088 265.844 307.088C264.489 307.088 263.449 306.701 262.723 305.927C262.022 305.153 261.671 304.21 261.671 303.097Z" fill="#202124"/>
<g clip-path="url(#clip1_7_3451)">
<rect x="282.393" y="260.689" width="127.377" height="106.148" rx="5.30739" fill="#212121" fill-opacity="0.08"/>
<path d="M341.837 308.068V316.122C341.837 320.451 341.45 324.104 340.676 327.079C339.902 330.054 338.789 332.448 337.338 334.262C335.887 336.076 334.133 337.395 332.077 338.217C330.046 339.015 327.748 339.414 325.184 339.414C323.152 339.414 321.278 339.16 319.56 338.652C317.843 338.145 316.295 337.334 314.916 336.222C313.562 335.085 312.401 333.609 311.433 331.795C310.466 329.981 309.728 327.78 309.22 325.192C308.712 322.604 308.458 319.581 308.458 316.122V308.068C308.458 303.738 308.845 300.11 309.619 297.183C310.418 294.257 311.542 291.91 312.994 290.145C314.445 288.355 316.186 287.073 318.218 286.299C320.274 285.525 322.572 285.138 325.111 285.138C327.167 285.138 329.054 285.392 330.771 285.9C332.513 286.384 334.061 287.17 335.415 288.258C336.77 289.322 337.919 290.749 338.862 292.539C339.829 294.305 340.567 296.47 341.075 299.034C341.583 301.597 341.837 304.609 341.837 308.068ZM335.089 317.21V306.943C335.089 304.572 334.944 302.492 334.653 300.703C334.387 298.888 333.988 297.34 333.456 296.059C332.924 294.777 332.247 293.737 331.424 292.938C330.626 292.14 329.695 291.56 328.631 291.197C327.591 290.81 326.417 290.616 325.111 290.616C323.515 290.616 322.1 290.919 320.866 291.523C319.633 292.104 318.593 293.035 317.746 294.317C316.924 295.599 316.295 297.28 315.86 299.36C315.424 301.44 315.207 303.968 315.207 306.943V317.21C315.207 319.581 315.34 321.673 315.606 323.487C315.896 325.301 316.319 326.873 316.876 328.204C317.432 329.51 318.109 330.586 318.907 331.433C319.705 332.279 320.625 332.908 321.665 333.319C322.729 333.706 323.902 333.9 325.184 333.9C326.829 333.9 328.268 333.585 329.501 332.956C330.735 332.327 331.763 331.348 332.585 330.018C333.432 328.663 334.061 326.934 334.472 324.829C334.883 322.701 335.089 320.161 335.089 317.21ZM383.633 308.068V316.122C383.633 320.451 383.246 324.104 382.472 327.079C381.698 330.054 380.585 332.448 379.134 334.262C377.683 336.076 375.929 337.395 373.873 338.217C371.841 339.015 369.544 339.414 366.98 339.414C364.948 339.414 363.073 339.16 361.356 338.652C359.639 338.145 358.091 337.334 356.712 336.222C355.358 335.085 354.197 333.609 353.229 331.795C352.262 329.981 351.524 327.78 351.016 325.192C350.508 322.604 350.254 319.581 350.254 316.122V308.068C350.254 303.738 350.641 300.11 351.415 297.183C352.213 294.257 353.338 291.91 354.789 290.145C356.24 288.355 357.982 287.073 360.014 286.299C362.07 285.525 364.367 285.138 366.907 285.138C368.963 285.138 370.85 285.392 372.567 285.9C374.308 286.384 375.856 287.17 377.211 288.258C378.565 289.322 379.714 290.749 380.658 292.539C381.625 294.305 382.363 296.47 382.871 299.034C383.379 301.597 383.633 304.609 383.633 308.068ZM376.884 317.21V306.943C376.884 304.572 376.739 302.492 376.449 300.703C376.183 298.888 375.784 297.34 375.252 296.059C374.72 294.777 374.042 293.737 373.22 292.938C372.422 292.14 371.491 291.56 370.426 291.197C369.386 290.81 368.213 290.616 366.907 290.616C365.311 290.616 363.896 290.919 362.662 291.523C361.429 292.104 360.389 293.035 359.542 294.317C358.72 295.599 358.091 297.28 357.655 299.36C357.22 301.44 357.002 303.968 357.002 306.943V317.21C357.002 319.581 357.135 321.673 357.401 323.487C357.692 325.301 358.115 326.873 358.671 328.204C359.228 329.51 359.905 330.586 360.703 331.433C361.501 332.279 362.42 332.908 363.46 333.319C364.525 333.706 365.698 333.9 366.98 333.9C368.624 333.9 370.064 333.585 371.297 332.956C372.531 332.327 373.559 331.348 374.381 330.018C375.228 328.663 375.856 326.934 376.268 324.829C376.679 322.701 376.884 320.161 376.884 317.21Z" fill="black" fill-opacity="0.87"/>
</g>
<g clip-path="url(#clip2_7_3451)">
<rect x="425.693" y="260.689" width="68.9961" height="106.148" rx="5.30739" fill="white"/>
<rect width="68.9961" height="53.0739" transform="translate(425.693 260.689)" fill="#F2E7FE"/>
<path d="M450.871 284.857L446.925 296.303H444.54L449.51 283.097H451.034L450.871 284.857ZM454.173 296.303L450.218 284.857L450.046 283.097H451.578L456.567 296.303H454.173ZM453.982 291.406V293.211H446.798V291.406H453.982ZM460.629 283.097H462.661L466.48 293.283L470.289 283.097H472.321L467.278 296.303H465.663L460.629 283.097ZM459.704 283.097H461.636L461.972 291.913V296.303H459.704V283.097ZM471.314 283.097H473.255V296.303H470.978V291.913L471.314 283.097Z" fill="#6200EE"/>
<line x1="425.693" y1="313.099" x2="494.689" y2="313.099" stroke="#DADCE0" stroke-width="1.32685"/>
<path d="M450.739 342.087H447.301V340.282H450.739C451.337 340.282 451.821 340.185 452.19 339.991C452.559 339.798 452.828 339.532 452.997 339.193C453.172 338.848 453.26 338.455 453.26 338.014C453.26 337.597 453.172 337.207 452.997 336.844C452.828 336.475 452.559 336.179 452.19 335.955C451.821 335.731 451.337 335.619 450.739 335.619H447.999V347.012H445.723V333.805H450.739C451.76 333.805 452.628 333.987 453.342 334.35C454.061 334.706 454.608 335.202 454.983 335.837C455.358 336.466 455.546 337.186 455.546 337.996C455.546 338.848 455.358 339.58 454.983 340.191C454.608 340.802 454.061 341.27 453.342 341.597C452.628 341.923 451.76 342.087 450.739 342.087ZM460.17 333.805H462.202L466.021 343.991L469.83 333.805H471.862L466.819 347.012H465.204L460.17 333.805ZM459.245 333.805H461.177L461.513 342.622V347.012H459.245V333.805ZM470.855 333.805H472.796V347.012H470.519V342.622L470.855 333.805Z" fill="black" fill-opacity="0.6"/>
<line x1="425.693" y1="366.173" x2="494.689" y2="366.173" stroke="#DADCE0" stroke-width="1.32685"/>
</g>
<rect x="426.356" y="261.352" width="67.6693" height="104.821" rx="4.64397" stroke="#DADCE0" stroke-width="1.32685"/>
<rect x="137.766" y="414.603" width="339.673" height="339.673" rx="169.837" fill="#212121" fill-opacity="0.08"/>
<circle cx="307.603" cy="584.44" r="4.64397" transform="rotate(-90 307.603 584.44)" fill="#6200EE" stroke="#6200EE" stroke-width="1.32685"/>
<path d="M303.152 441.081V456.257H301.234V443.476L297.368 444.885V443.154L302.851 441.081H303.152ZM318.813 454.681V456.257H308.934V454.878L313.879 449.374C314.487 448.697 314.957 448.123 315.289 447.653C315.627 447.176 315.862 446.751 315.993 446.378C316.132 445.998 316.201 445.611 316.201 445.217C316.201 444.719 316.097 444.27 315.89 443.869C315.689 443.462 315.392 443.137 314.998 442.895C314.604 442.653 314.128 442.532 313.568 442.532C312.897 442.532 312.338 442.664 311.888 442.926C311.446 443.182 311.114 443.541 310.893 444.004C310.672 444.467 310.562 444.999 310.562 445.601H308.644C308.644 444.751 308.83 443.973 309.204 443.268C309.577 442.563 310.13 442.004 310.862 441.589C311.595 441.167 312.497 440.957 313.568 440.957C314.521 440.957 315.337 441.126 316.014 441.465C316.691 441.796 317.21 442.266 317.569 442.874C317.935 443.476 318.118 444.18 318.118 444.989C318.118 445.431 318.042 445.88 317.89 446.337C317.745 446.786 317.541 447.235 317.279 447.684C317.023 448.133 316.722 448.576 316.377 449.011C316.038 449.446 315.675 449.875 315.289 450.296L311.246 454.681H318.813Z" fill="black" fill-opacity="0.87"/>
<path d="M236.81 459.657V474.833H234.892V462.051L231.025 463.461V461.73L236.509 459.657H236.81ZM248.884 459.657V474.833H246.966V462.051L243.1 463.461V461.73L248.583 459.657H248.884Z" fill="black" fill-opacity="0.87"/>
<path d="M186.389 510.077V525.253H184.472V512.472L180.605 513.881V512.15L186.089 510.077H186.389ZM201.636 516.504V518.805C201.636 520.042 201.525 521.086 201.304 521.936C201.083 522.786 200.765 523.47 200.35 523.988C199.936 524.507 199.435 524.883 198.847 525.118C198.267 525.346 197.61 525.46 196.878 525.46C196.297 525.46 195.762 525.388 195.271 525.243C194.78 525.097 194.338 524.866 193.944 524.548C193.557 524.223 193.225 523.802 192.949 523.283C192.672 522.765 192.462 522.136 192.317 521.397C192.171 520.657 192.099 519.794 192.099 518.805V516.504C192.099 515.267 192.209 514.23 192.431 513.394C192.659 512.558 192.98 511.888 193.395 511.383C193.809 510.872 194.307 510.506 194.887 510.284C195.475 510.063 196.131 509.953 196.857 509.953C197.444 509.953 197.983 510.025 198.474 510.17C198.972 510.309 199.414 510.533 199.801 510.844C200.188 511.148 200.516 511.556 200.786 512.067C201.062 512.572 201.273 513.19 201.418 513.923C201.563 514.655 201.636 515.516 201.636 516.504ZM199.708 519.116V516.183C199.708 515.505 199.666 514.911 199.583 514.4C199.507 513.881 199.393 513.439 199.241 513.073C199.089 512.707 198.896 512.409 198.661 512.181C198.433 511.953 198.166 511.787 197.862 511.684C197.565 511.573 197.23 511.518 196.857 511.518C196.401 511.518 195.997 511.604 195.644 511.777C195.292 511.943 194.994 512.209 194.753 512.575C194.518 512.942 194.338 513.422 194.214 514.016C194.089 514.611 194.027 515.333 194.027 516.183V519.116C194.027 519.794 194.065 520.391 194.141 520.91C194.224 521.428 194.345 521.877 194.504 522.257C194.663 522.63 194.856 522.938 195.084 523.18C195.312 523.422 195.575 523.601 195.872 523.719C196.176 523.829 196.511 523.885 196.878 523.885C197.348 523.885 197.759 523.795 198.111 523.615C198.464 523.435 198.757 523.156 198.992 522.775C199.234 522.388 199.414 521.894 199.531 521.293C199.649 520.685 199.708 519.959 199.708 519.116Z" fill="black" fill-opacity="0.87"/>
<path d="M169.455 589.989H169.652C170.758 589.989 171.657 589.833 172.348 589.522C173.039 589.211 173.571 588.793 173.944 588.268C174.317 587.743 174.573 587.152 174.711 586.495C174.849 585.832 174.918 585.151 174.918 584.453V582.142C174.918 581.458 174.839 580.849 174.68 580.317C174.528 579.785 174.314 579.339 174.037 578.98C173.768 578.621 173.46 578.348 173.115 578.161C172.769 577.975 172.403 577.881 172.016 577.881C171.574 577.881 171.176 577.971 170.824 578.151C170.478 578.324 170.185 578.569 169.943 578.887C169.708 579.205 169.528 579.578 169.404 580.006C169.279 580.435 169.217 580.901 169.217 581.406C169.217 581.855 169.272 582.29 169.383 582.712C169.493 583.133 169.663 583.513 169.891 583.852C170.119 584.191 170.402 584.46 170.741 584.661C171.086 584.854 171.491 584.951 171.954 584.951C172.382 584.951 172.783 584.868 173.156 584.702C173.536 584.529 173.871 584.298 174.162 584.008C174.459 583.71 174.694 583.375 174.867 583.002C175.046 582.629 175.15 582.238 175.177 581.831H176.09C176.09 582.404 175.976 582.971 175.748 583.531C175.526 584.084 175.216 584.588 174.815 585.044C174.414 585.5 173.944 585.867 173.405 586.143C172.866 586.412 172.278 586.547 171.643 586.547C170.896 586.547 170.25 586.402 169.704 586.112C169.158 585.822 168.709 585.435 168.357 584.951C168.011 584.467 167.752 583.928 167.579 583.334C167.413 582.733 167.33 582.124 167.33 581.509C167.33 580.791 167.431 580.117 167.631 579.488C167.831 578.859 168.129 578.306 168.523 577.829C168.916 577.346 169.404 576.969 169.984 576.7C170.572 576.43 171.249 576.295 172.016 576.295C172.88 576.295 173.616 576.468 174.224 576.814C174.832 577.159 175.326 577.622 175.706 578.203C176.093 578.783 176.376 579.436 176.556 580.162C176.736 580.887 176.826 581.634 176.826 582.401V583.095C176.826 583.876 176.774 584.671 176.67 585.48C176.573 586.281 176.383 587.048 176.1 587.781C175.824 588.513 175.419 589.17 174.887 589.75C174.355 590.324 173.661 590.78 172.804 591.119C171.954 591.45 170.903 591.616 169.652 591.616H169.455V589.989Z" fill="black" fill-opacity="0.87"/>
<path d="M195.64 653.854C195.64 654.773 195.426 655.554 194.997 656.196C194.576 656.832 194.002 657.316 193.276 657.647C192.558 657.979 191.746 658.145 190.84 658.145C189.935 658.145 189.12 657.979 188.394 657.647C187.668 657.316 187.095 656.832 186.673 656.196C186.252 655.554 186.041 654.773 186.041 653.854C186.041 653.252 186.155 652.703 186.383 652.205C186.618 651.701 186.946 651.262 187.368 650.889C187.796 650.516 188.301 650.229 188.881 650.028C189.469 649.821 190.115 649.718 190.82 649.718C191.746 649.718 192.572 649.897 193.297 650.257C194.023 650.609 194.593 651.096 195.008 651.718C195.429 652.34 195.64 653.052 195.64 653.854ZM193.712 653.812C193.712 653.252 193.591 652.758 193.349 652.33C193.107 651.894 192.769 651.556 192.333 651.314C191.898 651.072 191.393 650.951 190.82 650.951C190.232 650.951 189.724 651.072 189.296 651.314C188.874 651.556 188.546 651.894 188.311 652.33C188.076 652.758 187.959 653.252 187.959 653.812C187.959 654.393 188.073 654.89 188.301 655.305C188.536 655.713 188.867 656.027 189.296 656.248C189.731 656.462 190.246 656.569 190.84 656.569C191.435 656.569 191.946 656.462 192.375 656.248C192.803 656.027 193.131 655.713 193.359 655.305C193.594 654.89 193.712 654.393 193.712 653.812ZM195.287 646.774C195.287 647.506 195.094 648.166 194.707 648.753C194.32 649.341 193.791 649.804 193.121 650.143C192.451 650.481 191.69 650.65 190.84 650.65C189.977 650.65 189.206 650.481 188.529 650.143C187.858 649.804 187.333 649.341 186.953 648.753C186.573 648.166 186.383 647.506 186.383 646.774C186.383 645.896 186.573 645.15 186.953 644.535C187.34 643.919 187.869 643.45 188.539 643.125C189.21 642.8 189.973 642.638 190.83 642.638C191.694 642.638 192.461 642.8 193.131 643.125C193.802 643.45 194.327 643.919 194.707 644.535C195.094 645.15 195.287 645.896 195.287 646.774ZM193.37 646.805C193.37 646.3 193.263 645.854 193.048 645.467C192.834 645.08 192.537 644.776 192.157 644.555C191.777 644.327 191.335 644.213 190.83 644.213C190.326 644.213 189.883 644.32 189.503 644.535C189.13 644.742 188.836 645.039 188.622 645.426C188.415 645.813 188.311 646.273 188.311 646.805C188.311 647.323 188.415 647.776 188.622 648.163C188.836 648.55 189.134 648.85 189.514 649.064C189.894 649.279 190.336 649.386 190.84 649.386C191.345 649.386 191.784 649.279 192.157 649.064C192.537 648.85 192.834 648.55 193.048 648.163C193.263 647.776 193.37 647.323 193.37 646.805Z" fill="black" fill-opacity="0.87"/>
<path d="M246.299 693.265V694.343L240.048 708.358H238.027L244.267 694.841H236.098V693.265H246.299Z" fill="black" fill-opacity="0.87"/>
<line y1="-1.32685" x2="137.992" y2="-1.32685" transform="matrix(-0.5 0.866025 0.866025 0.5 308.267 585.103)" stroke="#6200EE" stroke-width="2.6537"/>
<rect x="209.416" y="669.358" width="63.6887" height="63.6887" rx="31.8444" fill="#6200EE"/>
<path d="M246.299 693.265V694.343L240.048 708.358H238.027L244.267 694.841H236.098V693.265H246.299Z" fill="white"/>
<path d="M310.246 711.82H310.412V713.448H310.246C309.231 713.448 308.381 713.614 307.696 713.945C307.012 714.27 306.47 714.709 306.069 715.262C305.668 715.808 305.378 716.423 305.198 717.107C305.025 717.791 304.939 718.486 304.939 719.19V721.409C304.939 722.079 305.019 722.673 305.178 723.192C305.336 723.703 305.554 724.135 305.831 724.487C306.107 724.84 306.418 725.106 306.764 725.286C307.116 725.465 307.482 725.555 307.862 725.555C308.305 725.555 308.698 725.472 309.044 725.306C309.39 725.134 309.68 724.895 309.915 724.591C310.157 724.28 310.34 723.914 310.464 723.492C310.589 723.071 310.651 722.608 310.651 722.103C310.651 721.654 310.595 721.222 310.485 720.808C310.374 720.386 310.205 720.013 309.977 719.688C309.749 719.356 309.462 719.097 309.117 718.911C308.778 718.717 308.374 718.62 307.904 718.62C307.372 718.62 306.874 718.752 306.411 719.014C305.955 719.27 305.578 719.609 305.281 720.03C304.991 720.445 304.825 720.897 304.784 721.388L303.768 721.378C303.864 720.604 304.044 719.944 304.307 719.398C304.576 718.845 304.908 718.396 305.302 718.05C305.703 717.698 306.148 717.442 306.639 717.283C307.137 717.117 307.662 717.034 308.215 717.034C308.968 717.034 309.618 717.176 310.164 717.459C310.709 717.743 311.159 718.123 311.511 718.6C311.864 719.069 312.123 719.602 312.289 720.196C312.461 720.783 312.548 721.388 312.548 722.01C312.548 722.722 312.448 723.389 312.247 724.011C312.047 724.633 311.746 725.179 311.345 725.648C310.951 726.118 310.464 726.485 309.884 726.747C309.303 727.01 308.629 727.141 307.862 727.141C307.047 727.141 306.335 726.975 305.727 726.644C305.119 726.305 304.614 725.856 304.213 725.296C303.813 724.736 303.512 724.114 303.312 723.43C303.111 722.746 303.011 722.051 303.011 721.347V720.445C303.011 719.38 303.118 718.337 303.332 717.314C303.547 716.291 303.916 715.365 304.442 714.536C304.974 713.707 305.71 713.047 306.649 712.556C307.589 712.066 308.788 711.82 310.246 711.82Z" fill="black" fill-opacity="0.87"/>
<path d="M371.655 701.175L370.12 700.781L370.877 693.265H378.621V695.038H372.505L372.049 699.143C372.325 698.984 372.674 698.835 373.096 698.697C373.524 698.559 374.015 698.49 374.568 698.49C375.265 698.49 375.891 698.611 376.444 698.853C376.997 699.087 377.467 699.426 377.854 699.868C378.247 700.311 378.548 700.843 378.755 701.465C378.963 702.087 379.066 702.781 379.066 703.548C379.066 704.274 378.966 704.941 378.766 705.549C378.572 706.157 378.279 706.689 377.885 707.145C377.491 707.595 376.993 707.944 376.392 708.192C375.798 708.441 375.096 708.565 374.288 708.565C373.679 708.565 373.102 708.483 372.557 708.317C372.017 708.144 371.534 707.885 371.105 707.539C370.684 707.187 370.338 706.751 370.069 706.233C369.806 705.708 369.64 705.093 369.571 704.388H371.396C371.478 704.955 371.644 705.431 371.893 705.818C372.142 706.205 372.467 706.499 372.867 706.7C373.275 706.893 373.749 706.99 374.288 706.99C374.744 706.99 375.148 706.91 375.5 706.751C375.853 706.592 376.15 706.364 376.392 706.067C376.634 705.77 376.817 705.411 376.941 704.989C377.073 704.568 377.138 704.094 377.138 703.569C377.138 703.092 377.073 702.65 376.941 702.242C376.81 701.834 376.613 701.479 376.35 701.175C376.095 700.87 375.78 700.635 375.407 700.47C375.034 700.297 374.606 700.21 374.122 700.21C373.479 700.21 372.992 700.297 372.66 700.47C372.335 700.642 372 700.877 371.655 701.175Z" fill="black" fill-opacity="0.87"/>
<path d="M429.849 652.858V654.434H418.944V653.304L425.703 642.845H427.268L425.589 645.872L421.121 652.858H429.849ZM427.745 642.845V657.938H425.827V642.845H427.745Z" fill="black" fill-opacity="0.87"/>
<path d="M441.024 583.106H442.392C443.063 583.106 443.615 582.995 444.051 582.774C444.493 582.546 444.821 582.238 445.036 581.851C445.257 581.458 445.367 581.015 445.367 580.525C445.367 579.944 445.271 579.457 445.077 579.063C444.884 578.669 444.593 578.372 444.206 578.171C443.819 577.971 443.329 577.871 442.734 577.871C442.195 577.871 441.718 577.978 441.304 578.192C440.896 578.4 440.575 578.697 440.34 579.084C440.112 579.471 439.998 579.927 439.998 580.452H438.08C438.08 579.685 438.273 578.987 438.66 578.358C439.047 577.729 439.59 577.228 440.288 576.855C440.993 576.482 441.808 576.295 442.734 576.295C443.647 576.295 444.445 576.458 445.129 576.782C445.813 577.1 446.345 577.577 446.725 578.213C447.105 578.842 447.295 579.626 447.295 580.566C447.295 580.946 447.206 581.354 447.026 581.789C446.853 582.218 446.58 582.619 446.207 582.992C445.841 583.365 445.364 583.672 444.776 583.914C444.189 584.149 443.484 584.267 442.662 584.267H441.024V583.106ZM441.024 584.681V583.531H442.662C443.622 583.531 444.417 583.645 445.046 583.873C445.675 584.101 446.169 584.405 446.528 584.785C446.895 585.165 447.15 585.583 447.295 586.039C447.447 586.488 447.523 586.938 447.523 587.387C447.523 588.092 447.402 588.717 447.161 589.263C446.926 589.809 446.59 590.272 446.155 590.652C445.727 591.032 445.222 591.319 444.642 591.513C444.061 591.706 443.429 591.803 442.745 591.803C442.088 591.803 441.47 591.709 440.889 591.523C440.316 591.336 439.808 591.067 439.365 590.714C438.923 590.355 438.578 589.916 438.329 589.398C438.08 588.873 437.956 588.275 437.956 587.605H439.873C439.873 588.13 439.987 588.589 440.215 588.983C440.45 589.377 440.782 589.685 441.211 589.906C441.646 590.12 442.157 590.227 442.745 590.227C443.332 590.227 443.837 590.127 444.258 589.927C444.687 589.719 445.015 589.408 445.243 588.994C445.478 588.579 445.595 588.057 445.595 587.428C445.595 586.799 445.464 586.285 445.201 585.884C444.939 585.476 444.566 585.175 444.082 584.982C443.605 584.782 443.042 584.681 442.392 584.681H441.024Z" fill="black" fill-opacity="0.87"/>
<path d="M429.538 523.677V525.253H419.66V523.874L424.604 518.37C425.212 517.693 425.682 517.119 426.014 516.649C426.353 516.172 426.588 515.747 426.719 515.374C426.857 514.994 426.926 514.607 426.926 514.213C426.926 513.716 426.822 513.266 426.615 512.866C426.415 512.458 426.118 512.133 425.724 511.891C425.33 511.649 424.853 511.528 424.293 511.528C423.623 511.528 423.063 511.66 422.614 511.922C422.172 512.178 421.84 512.537 421.619 513C421.398 513.463 421.287 513.995 421.287 514.597H419.369C419.369 513.747 419.556 512.969 419.929 512.264C420.302 511.559 420.855 511 421.588 510.585C422.32 510.163 423.222 509.953 424.293 509.953C425.247 509.953 426.062 510.122 426.74 510.461C427.417 510.792 427.935 511.262 428.294 511.87C428.661 512.472 428.844 513.177 428.844 513.985C428.844 514.427 428.768 514.877 428.616 515.333C428.471 515.782 428.267 516.231 428.004 516.68C427.748 517.129 427.448 517.572 427.102 518.007C426.764 518.442 426.401 518.871 426.014 519.292L421.971 523.677H429.538Z" fill="black" fill-opacity="0.87"/>
<path d="M375.532 459.657V474.833H373.614V462.051L369.747 463.461V461.73L375.231 459.657H375.532Z" fill="black" fill-opacity="0.87"/>
<path fill-rule="evenodd" clip-rule="evenodd" d="M148.381 816.638H127.152C125.692 816.638 124.511 817.832 124.511 819.292L124.498 832.56C124.498 834.02 125.692 835.214 127.152 835.214H148.381C149.841 835.214 151.035 834.02 151.035 832.56V819.292C151.035 817.832 149.841 816.638 148.381 816.638ZM148.381 819.292V832.56H127.152V819.292H148.381ZM139.093 820.618H136.44V823.272H139.093V820.618ZM136.44 824.599H139.093V827.253H136.44V824.599ZM135.113 820.618H132.459V823.272H135.113V820.618ZM132.459 824.599H135.113V827.253H132.459V824.599ZM131.132 824.599H128.479V827.253H131.132V824.599ZM128.479 820.618H131.132V823.272H128.479V820.618ZM143.074 828.58H132.459V831.233H143.074V828.58ZM140.42 824.599H143.074V827.253H140.42V824.599ZM143.074 820.618H140.42V823.272H143.074V820.618ZM144.401 824.599H147.054V827.253H144.401V824.599ZM147.054 820.618H144.401V823.272H147.054V820.618Z" fill="black" fill-opacity="0.6"/>
<g clip-path="url(#clip3_7_3451)">
<path d="M324.119 827.627H326.387C326.314 828.491 326.072 829.262 325.661 829.94C325.25 830.611 324.672 831.14 323.929 831.527C323.185 831.914 322.281 832.107 321.217 832.107C320.4 832.107 319.666 831.962 319.013 831.672C318.36 831.376 317.8 830.959 317.335 830.42C316.869 829.876 316.512 829.22 316.264 828.452C316.022 827.684 315.902 826.826 315.902 825.876V824.779C315.902 823.829 316.025 822.971 316.273 822.203C316.527 821.435 316.89 820.779 317.362 820.234C317.833 819.684 318.399 819.264 319.058 818.974C319.723 818.683 320.47 818.538 321.298 818.538C322.35 818.538 323.239 818.732 323.965 819.119C324.691 819.506 325.253 820.041 325.652 820.724C326.057 821.408 326.305 822.191 326.396 823.073H324.128C324.068 822.505 323.935 822.018 323.729 821.613C323.53 821.208 323.233 820.9 322.84 820.688C322.447 820.47 321.933 820.361 321.298 820.361C320.778 820.361 320.325 820.458 319.938 820.652C319.551 820.845 319.227 821.129 318.967 821.504C318.707 821.879 318.511 822.342 318.378 822.892C318.251 823.436 318.187 824.059 318.187 824.761V825.876C318.187 826.541 318.245 827.146 318.36 827.69C318.48 828.228 318.662 828.691 318.904 829.078C319.152 829.465 319.466 829.764 319.847 829.976C320.228 830.188 320.685 830.293 321.217 830.293C321.864 830.293 322.387 830.191 322.786 829.985C323.191 829.779 323.496 829.48 323.702 829.087C323.914 828.688 324.053 828.201 324.119 827.627ZM335.256 820.479L331.311 831.926H328.925L333.896 818.72H335.419L335.256 820.479ZM338.558 831.926L334.603 820.479L334.431 818.72H335.964L340.952 831.926H338.558ZM338.367 827.028V828.833H331.184V827.028H338.367ZM354.565 818.72V831.926H352.289L346.366 822.466V831.926H344.089V818.72H346.366L352.307 828.198V818.72H354.565ZM366.736 827.627H369.004C368.931 828.491 368.69 829.262 368.278 829.94C367.867 830.611 367.29 831.14 366.546 831.527C365.802 831.914 364.898 832.107 363.834 832.107C363.018 832.107 362.283 831.962 361.63 831.672C360.977 831.376 360.417 830.959 359.952 830.42C359.486 829.876 359.129 829.22 358.882 828.452C358.64 827.684 358.519 826.826 358.519 825.876V824.779C358.519 823.829 358.643 822.971 358.891 822.203C359.145 821.435 359.507 820.779 359.979 820.234C360.451 819.684 361.016 819.264 361.675 818.974C362.34 818.683 363.087 818.538 363.916 818.538C364.968 818.538 365.857 818.732 366.582 819.119C367.308 819.506 367.87 820.041 368.269 820.724C368.674 821.408 368.922 822.191 369.013 823.073H366.745C366.685 822.505 366.552 822.018 366.346 821.613C366.147 821.208 365.851 820.9 365.457 820.688C365.064 820.47 364.55 820.361 363.916 820.361C363.396 820.361 362.942 820.458 362.555 820.652C362.168 820.845 361.845 821.129 361.584 821.504C361.324 821.879 361.128 822.342 360.995 822.892C360.868 823.436 360.804 824.059 360.804 824.761V825.876C360.804 826.541 360.862 827.146 360.977 827.69C361.098 828.228 361.279 828.691 361.521 829.078C361.769 829.465 362.083 829.764 362.464 829.976C362.845 830.188 363.302 830.293 363.834 830.293C364.481 830.293 365.004 830.191 365.403 829.985C365.808 829.779 366.114 829.48 366.319 829.087C366.531 828.688 366.67 828.201 366.736 827.627ZM381.374 830.121V831.926H374.363V830.121H381.374ZM375.007 818.72V831.926H372.731V818.72H375.007ZM380.458 824.234V826.012H374.363V824.234H380.458ZM381.329 818.72V820.534H374.363V818.72H381.329ZM393.165 830.121V831.926H386.534V830.121H393.165ZM387.169 818.72V831.926H384.892V818.72H387.169Z" fill="#6200EE"/>
<path d="M457.208 824.96V825.686C457.208 826.683 457.078 827.578 456.818 828.37C456.558 829.163 456.186 829.837 455.703 830.393C455.225 830.949 454.65 831.376 453.979 831.672C453.308 831.962 452.564 832.107 451.748 832.107C450.938 832.107 450.197 831.962 449.526 831.672C448.861 831.376 448.283 830.949 447.793 830.393C447.304 829.837 446.923 829.163 446.651 828.37C446.384 827.578 446.251 826.683 446.251 825.686V824.96C446.251 823.962 446.384 823.07 446.651 822.284C446.917 821.492 447.291 820.818 447.775 820.262C448.265 819.699 448.842 819.273 449.508 818.983C450.179 818.686 450.92 818.538 451.73 818.538C452.546 818.538 453.29 818.686 453.961 818.983C454.632 819.273 455.21 819.699 455.694 820.262C456.177 820.818 456.549 821.492 456.809 822.284C457.075 823.07 457.208 823.962 457.208 824.96ZM454.932 825.686V824.942C454.932 824.204 454.859 823.554 454.714 822.992C454.575 822.423 454.366 821.949 454.088 821.568C453.816 821.181 453.48 820.891 453.081 820.697C452.682 820.498 452.232 820.398 451.73 820.398C451.228 820.398 450.78 820.498 450.387 820.697C449.994 820.891 449.659 821.181 449.381 821.568C449.109 821.949 448.9 822.423 448.755 822.992C448.61 823.554 448.537 824.204 448.537 824.942V825.686C448.537 826.423 448.61 827.076 448.755 827.645C448.9 828.213 449.112 828.694 449.39 829.087C449.674 829.474 450.013 829.767 450.406 829.967C450.799 830.16 451.246 830.257 451.748 830.257C452.256 830.257 452.706 830.16 453.099 829.967C453.492 829.767 453.825 829.474 454.097 829.087C454.369 828.694 454.575 828.213 454.714 827.645C454.859 827.076 454.932 826.423 454.932 825.686ZM463.42 818.72V831.926H461.143V818.72H463.42ZM471.357 818.72L466.005 825.078L462.958 828.307L462.558 826.049L464.735 823.364L468.581 818.72H471.357ZM468.908 831.926L464.563 825.668L466.132 824.117L471.611 831.926H468.908Z" fill="#6200EE"/>
</g>
</g>
<defs>
<filter id="filter0_dd_7_3451" x="722" y="272" width="220" height="230" filterUnits="userSpaceOnUse" color-interpolation-filters="sRGB">
<feFlood flood-opacity="0" result="BackgroundImageFix"/>
<feColorMatrix in="SourceAlpha" type="matrix" values="0 0 0 0 0 0 0 0 0 0 0 0 0 0 0 0 0 0 127 0" result="hardAlpha"/>
<feOffset dy="10"/>
<feGaussianBlur stdDeviation="5"/>
<feComposite in2="hardAlpha" operator="out"/>
<feColorMatrix type="matrix" values="0 0 0 0 0 0 0 0 0 0 0 0 0 0 0 0 0 0 0.1 0"/>
<feBlend mode="normal" in2="BackgroundImageFix" result="effect1_dropShadow_7_3451"/>
<feColorMatrix in="SourceAlpha" type="matrix" values="0 0 0 0 0 0 0 0 0 0 0 0 0 0 0 0 0 0 127 0" result="hardAlpha"/>
<feOffset dy="20"/>
<feGaussianBlur stdDeviation="5"/>
<feComposite in2="hardAlpha" operator="out"/>
<feColorMatrix type="matrix" values="0 0 0 0 0 0 0 0 0 0 0 0 0 0 0 0 0 0 0.1 0"/>
<feBlend mode="normal" in2="effect1_dropShadow_7_3451" result="effect2_dropShadow_7_3451"/>
<feBlend mode="normal" in="SourceGraphic" in2="effect2_dropShadow_7_3451" result="shape"/>
</filter>
<filter id="filter1_dd_7_3451" x="582" y="570" width="219.745" height="230" filterUnits="userSpaceOnUse" color-interpolation-filters="sRGB">
<feFlood flood-opacity="0" result="BackgroundImageFix"/>
<feColorMatrix in="SourceAlpha" type="matrix" values="0 0 0 0 0 0 0 0 0 0 0 0 0 0 0 0 0 0 127 0" result="hardAlpha"/>
<feOffset dy="10"/>
<feGaussianBlur stdDeviation="5"/>
<feComposite in2="hardAlpha" operator="out"/>
<feColorMatrix type="matrix" values="0 0 0 0 0 0 0 0 0 0 0 0 0 0 0 0 0 0 0.1 0"/>
<feBlend mode="normal" in2="BackgroundImageFix" result="effect1_dropShadow_7_3451"/>
<feColorMatrix in="SourceAlpha" type="matrix" values="0 0 0 0 0 0 0 0 0 0 0 0 0 0 0 0 0 0 127 0" result="hardAlpha"/>
<feOffset dy="20"/>
<feGaussianBlur stdDeviation="5"/>
<feComposite in2="hardAlpha" operator="out"/>
<feColorMatrix type="matrix" values="0 0 0 0 0 0 0 0 0 0 0 0 0 0 0 0 0 0 0.1 0"/>
<feBlend mode="normal" in2="effect1_dropShadow_7_3451" result="effect2_dropShadow_7_3451"/>
<feBlend mode="normal" in="SourceGraphic" in2="effect2_dropShadow_7_3451" result="shape"/>
</filter>
<filter id="filter2_d_7_3451" x="84.6926" y="175" width="445.821" height="685.424" filterUnits="userSpaceOnUse" color-interpolation-filters="sRGB">
<feFlood flood-opacity="0" result="BackgroundImageFix"/>
<feColorMatrix in="SourceAlpha" type="matrix" values="0 0 0 0 0 0 0 0 0 0 0 0 0 0 0 0 0 0 127 0" result="hardAlpha"/>
<feOffset dy="5.30739"/>
<feGaussianBlur stdDeviation="2.6537"/>
<feColorMatrix type="matrix" values="0 0 0 0 0 0 0 0 0 0 0 0 0 0 0 0 0 0 0.25 0"/>
<feBlend mode="normal" in2="BackgroundImageFix" result="effect1_dropShadow_7_3451"/>
<feBlend mode="normal" in="SourceGraphic" in2="effect1_dropShadow_7_3451" result="shape"/>
</filter>
<clipPath id="clip0_7_3451">
<rect width="127.377" height="106.148" fill="white" transform="translate(121.844 260.689)"/>
</clipPath>
<clipPath id="clip1_7_3451">
<rect width="127.377" height="106.148" fill="white" transform="translate(282.393 260.689)"/>
</clipPath>
<clipPath id="clip2_7_3451">
<rect x="425.693" y="260.689" width="68.9961" height="106.148" rx="5.30739" fill="white"/>
</clipPath>
<clipPath id="clip3_7_3451">
<rect width="347.207" height="47.7665" fill="white" transform="translate(153.689 802.043)"/>
</clipPath>
</defs>
</svg>
