<svg width="1024" height="1024" viewBox="0 0 1024 1024" fill="none" xmlns="http://www.w3.org/2000/svg">
<rect width="1024" height="1024" fill="#DFD5EC"/>
<path d="M827.385 267H696.615C638.838 267 592 313.809 592 371.55C592 429.291 638.838 476.1 696.615 476.1H827.385C885.162 476.1 932 429.291 932 371.55C932 313.809 885.162 267 827.385 267Z" fill="#6750A4"/>
<path d="M905.846 371.55C905.846 328.244 870.718 293.137 827.385 293.137C784.052 293.137 748.923 328.244 748.923 371.55C748.923 414.856 784.052 449.962 827.385 449.962C870.718 449.962 905.846 414.856 905.846 371.55Z" fill="white"/>
<path d="M694 576.5H830C882.743 576.5 925.5 619.257 925.5 672C925.5 724.743 882.743 767.5 830 767.5H694C641.257 767.5 598.5 724.743 598.5 672C598.5 619.257 641.257 576.5 694 576.5Z" fill="#E6E0E9" stroke="#79747E" stroke-width="13"/>
<path d="M748.4 672C748.4 641.956 724.044 617.6 694 617.6C663.956 617.6 639.6 641.956 639.6 672C639.6 702.044 663.956 726.4 694 726.4C724.044 726.4 748.4 702.044 748.4 672Z" fill="#79747E"/>
<g clip-path="url(#clip0_7_3449)">
<path d="M475.72 175H123.28C103.243 175 87 191.225 87 211.238V811.762C87 831.776 103.243 848 123.28 848H475.72C495.757 848 512 831.776 512 811.762V211.238C512 191.225 495.757 175 475.72 175Z" fill="#ECE6F0"/>
<path d="M125.037 218.748C125.037 218.521 125.001 218.319 124.93 218.142C124.865 217.965 124.746 217.803 124.574 217.657C124.402 217.51 124.159 217.368 123.845 217.232C123.536 217.09 123.141 216.946 122.66 216.8C122.134 216.638 121.648 216.458 121.203 216.261C120.762 216.059 120.378 215.826 120.049 215.564C119.72 215.296 119.464 214.99 119.282 214.646C119.1 214.297 119.009 213.895 119.009 213.44C119.009 212.99 119.102 212.581 119.29 212.212C119.482 211.843 119.753 211.524 120.102 211.256C120.456 210.983 120.874 210.773 121.355 210.627C121.836 210.475 122.367 210.399 122.949 210.399C123.769 210.399 124.475 210.551 125.067 210.854C125.664 211.158 126.123 211.565 126.441 212.075C126.765 212.586 126.927 213.15 126.927 213.766H125.037C125.037 213.402 124.958 213.081 124.801 212.803C124.65 212.52 124.417 212.298 124.103 212.136C123.794 211.974 123.402 211.893 122.926 211.893C122.476 211.893 122.101 211.961 121.803 212.098C121.504 212.234 121.281 212.419 121.135 212.651C120.988 212.884 120.914 213.147 120.914 213.44C120.914 213.647 120.962 213.837 121.059 214.009C121.155 214.176 121.302 214.332 121.499 214.479C121.696 214.621 121.944 214.755 122.243 214.881C122.542 215.007 122.893 215.129 123.298 215.245C123.911 215.427 124.445 215.629 124.9 215.852C125.356 216.069 125.735 216.317 126.039 216.595C126.343 216.873 126.57 217.189 126.722 217.543C126.874 217.892 126.95 218.289 126.95 218.733C126.95 219.198 126.856 219.618 126.669 219.992C126.482 220.361 126.214 220.677 125.864 220.94C125.52 221.198 125.105 221.398 124.619 221.539C124.138 221.676 123.602 221.744 123.01 221.744C122.478 221.744 121.954 221.673 121.438 221.532C120.927 221.39 120.461 221.175 120.041 220.887C119.621 220.594 119.287 220.23 119.039 219.795C118.791 219.355 118.667 218.842 118.667 218.256H120.573C120.573 218.615 120.633 218.92 120.755 219.173C120.881 219.426 121.056 219.633 121.279 219.795C121.501 219.952 121.76 220.068 122.053 220.144C122.352 220.22 122.671 220.258 123.01 220.258C123.455 220.258 123.827 220.194 124.126 220.068C124.429 219.942 124.657 219.765 124.809 219.537C124.961 219.31 125.037 219.047 125.037 218.748ZM132.723 221.744C132.115 221.744 131.566 221.645 131.075 221.448C130.589 221.246 130.174 220.965 129.83 220.606C129.491 220.247 129.23 219.825 129.048 219.34C128.866 218.855 128.775 218.331 128.775 217.77V217.467C128.775 216.825 128.868 216.243 129.056 215.723C129.243 215.202 129.504 214.757 129.838 214.388C130.172 214.014 130.566 213.728 131.022 213.531C131.478 213.334 131.971 213.235 132.502 213.235C133.09 213.235 133.603 213.334 134.044 213.531C134.484 213.728 134.848 214.006 135.137 214.365C135.431 214.719 135.648 215.141 135.79 215.632C135.937 216.122 136.01 216.663 136.01 217.255V218.036H129.663V216.724H134.203V216.58C134.193 216.251 134.127 215.943 134.006 215.654C133.889 215.366 133.71 215.134 133.467 214.957C133.224 214.78 132.9 214.691 132.495 214.691C132.191 214.691 131.92 214.757 131.683 214.889C131.45 215.015 131.255 215.199 131.098 215.442C130.941 215.685 130.82 215.978 130.734 216.322C130.653 216.661 130.612 217.042 130.612 217.467V217.77C130.612 218.129 130.66 218.463 130.756 218.771C130.858 219.075 131.004 219.34 131.197 219.567C131.389 219.795 131.622 219.975 131.895 220.106C132.168 220.232 132.48 220.295 132.829 220.295C133.269 220.295 133.662 220.207 134.006 220.03C134.35 219.853 134.648 219.603 134.902 219.279L135.866 220.212C135.689 220.47 135.458 220.718 135.175 220.955C134.891 221.188 134.545 221.377 134.135 221.524C133.73 221.671 133.259 221.744 132.723 221.744ZM140.044 209.944V221.592H138.207V209.944H140.044ZM146.318 221.744C145.71 221.744 145.161 221.645 144.67 221.448C144.184 221.246 143.769 220.965 143.425 220.606C143.086 220.247 142.825 219.825 142.643 219.34C142.461 218.855 142.37 218.331 142.37 217.77V217.467C142.37 216.825 142.463 216.243 142.651 215.723C142.838 215.202 143.099 214.757 143.433 214.388C143.767 214.014 144.161 213.728 144.617 213.531C145.073 213.334 145.566 213.235 146.098 213.235C146.685 213.235 147.198 213.334 147.639 213.531C148.079 213.728 148.443 214.006 148.732 214.365C149.026 214.719 149.243 215.141 149.385 215.632C149.532 216.122 149.605 216.663 149.605 217.255V218.036H143.258V216.724H147.798V216.58C147.788 216.251 147.722 215.943 147.601 215.654C147.484 215.366 147.305 215.134 147.062 214.957C146.819 214.78 146.495 214.691 146.09 214.691C145.786 214.691 145.516 214.757 145.278 214.889C145.045 215.015 144.85 215.199 144.693 215.442C144.536 215.685 144.415 215.978 144.328 216.322C144.248 216.661 144.207 217.042 144.207 217.467V217.77C144.207 218.129 144.255 218.463 144.351 218.771C144.453 219.075 144.599 219.34 144.792 219.567C144.984 219.795 145.217 219.975 145.49 220.106C145.764 220.232 146.075 220.295 146.424 220.295C146.864 220.295 147.257 220.207 147.601 220.03C147.945 219.853 148.244 219.603 148.497 219.279L149.461 220.212C149.284 220.47 149.053 220.718 148.77 220.955C148.487 221.188 148.14 221.377 147.73 221.524C147.325 221.671 146.854 221.744 146.318 221.744ZM155.036 220.288C155.335 220.288 155.603 220.23 155.841 220.114C156.084 219.992 156.279 219.825 156.425 219.613C156.577 219.401 156.661 219.156 156.676 218.877H158.399C158.389 219.408 158.232 219.891 157.929 220.326C157.625 220.761 157.223 221.107 156.722 221.365C156.22 221.618 155.666 221.744 155.059 221.744C154.431 221.744 153.885 221.638 153.419 221.425C152.953 221.208 152.566 220.91 152.257 220.531C151.949 220.151 151.716 219.714 151.559 219.219C151.407 218.723 151.331 218.192 151.331 217.626V217.361C151.331 216.795 151.407 216.264 151.559 215.768C151.716 215.268 151.949 214.828 152.257 214.449C152.566 214.07 152.953 213.774 153.419 213.561C153.885 213.344 154.429 213.235 155.051 213.235C155.709 213.235 156.286 213.367 156.782 213.63C157.278 213.888 157.668 214.249 157.951 214.714C158.24 215.174 158.389 215.71 158.399 216.322H156.676C156.661 216.019 156.585 215.745 156.448 215.503C156.317 215.255 156.129 215.058 155.886 214.911C155.649 214.765 155.363 214.691 155.029 214.691C154.659 214.691 154.353 214.767 154.11 214.919C153.867 215.065 153.677 215.268 153.54 215.526C153.404 215.778 153.305 216.064 153.244 216.382C153.189 216.696 153.161 217.022 153.161 217.361V217.626C153.161 217.965 153.189 218.294 153.244 218.612C153.3 218.931 153.396 219.216 153.533 219.469C153.674 219.717 153.867 219.916 154.11 220.068C154.353 220.215 154.662 220.288 155.036 220.288ZM164.218 213.387V214.722H159.586V213.387H164.218ZM160.923 211.377H162.752V219.325C162.752 219.578 162.788 219.772 162.859 219.909C162.934 220.04 163.038 220.129 163.17 220.174C163.301 220.22 163.456 220.242 163.633 220.242C163.759 220.242 163.881 220.235 163.997 220.22C164.114 220.204 164.207 220.189 164.278 220.174L164.286 221.57C164.134 221.615 163.957 221.655 163.754 221.691C163.557 221.726 163.329 221.744 163.071 221.744C162.651 221.744 162.279 221.671 161.955 221.524C161.631 221.372 161.378 221.127 161.196 220.788C161.014 220.45 160.923 220 160.923 219.439V211.377ZM174.563 213.387V214.722H169.932V213.387H174.563ZM171.268 211.377H173.098V219.325C173.098 219.578 173.133 219.772 173.204 219.909C173.28 220.04 173.384 220.129 173.515 220.174C173.647 220.22 173.801 220.242 173.979 220.242C174.105 220.242 174.227 220.235 174.343 220.22C174.459 220.204 174.553 220.189 174.624 220.174L174.632 221.57C174.48 221.615 174.303 221.655 174.1 221.691C173.903 221.726 173.675 221.744 173.417 221.744C172.997 221.744 172.625 221.671 172.301 221.524C171.977 221.372 171.724 221.127 171.541 220.788C171.359 220.45 171.268 220 171.268 219.439V211.377ZM178.582 213.387V221.592H176.745V213.387H178.582ZM176.623 211.233C176.623 210.955 176.714 210.725 176.896 210.543C177.084 210.356 177.342 210.263 177.671 210.263C177.995 210.263 178.25 210.356 178.438 210.543C178.625 210.725 178.719 210.955 178.719 211.233C178.719 211.506 178.625 211.734 178.438 211.916C178.25 212.098 177.995 212.189 177.671 212.189C177.342 212.189 177.084 212.098 176.896 211.916C176.714 211.734 176.623 211.506 176.623 211.233ZM183.064 215.055V221.592H181.234V213.387H182.958L183.064 215.055ZM182.768 217.186L182.145 217.179C182.145 216.612 182.216 216.089 182.358 215.609C182.499 215.129 182.707 214.712 182.98 214.358C183.254 213.999 183.593 213.723 183.998 213.531C184.408 213.334 184.881 213.235 185.417 213.235C185.792 213.235 186.134 213.291 186.442 213.402C186.756 213.508 187.027 213.678 187.255 213.91C187.488 214.143 187.665 214.441 187.786 214.805C187.913 215.169 187.976 215.609 187.976 216.125V221.592H186.146V216.284C186.146 215.884 186.086 215.571 185.964 215.344C185.848 215.116 185.678 214.954 185.455 214.858C185.238 214.757 184.977 214.707 184.673 214.707C184.329 214.707 184.036 214.772 183.793 214.904C183.555 215.035 183.36 215.215 183.208 215.442C183.056 215.67 182.945 215.933 182.874 216.231C182.803 216.529 182.768 216.848 182.768 217.186ZM187.862 216.701L187.004 216.891C187.004 216.395 187.072 215.927 187.209 215.488C187.351 215.043 187.556 214.654 187.824 214.32C188.097 213.981 188.434 213.716 188.834 213.524C189.234 213.331 189.692 213.235 190.208 213.235C190.628 213.235 191.003 213.294 191.332 213.41C191.666 213.521 191.949 213.698 192.182 213.941C192.415 214.183 192.592 214.499 192.713 214.889C192.835 215.273 192.896 215.738 192.896 216.284V221.592H191.058V216.276C191.058 215.862 190.998 215.541 190.876 215.313C190.76 215.086 190.593 214.929 190.375 214.843C190.157 214.752 189.897 214.707 189.593 214.707C189.31 214.707 189.059 214.76 188.842 214.866C188.629 214.967 188.449 215.111 188.302 215.298C188.156 215.48 188.044 215.69 187.968 215.927C187.897 216.165 187.862 216.423 187.862 216.701ZM199.048 221.744C198.441 221.744 197.891 221.645 197.4 221.448C196.914 221.246 196.499 220.965 196.155 220.606C195.816 220.247 195.556 219.825 195.373 219.34C195.191 218.855 195.1 218.331 195.1 217.77V217.467C195.1 216.825 195.194 216.243 195.381 215.723C195.568 215.202 195.829 214.757 196.163 214.388C196.497 214.014 196.892 213.728 197.347 213.531C197.803 213.334 198.296 213.235 198.828 213.235C199.415 213.235 199.929 213.334 200.369 213.531C200.809 213.728 201.174 214.006 201.462 214.365C201.756 214.719 201.973 215.141 202.115 215.632C202.262 216.122 202.335 216.663 202.335 217.255V218.036H195.988V216.724H200.528V216.58C200.518 216.251 200.452 215.943 200.331 215.654C200.215 215.366 200.035 215.134 199.792 214.957C199.549 214.78 199.225 214.691 198.82 214.691C198.517 214.691 198.246 214.757 198.008 214.889C197.775 215.015 197.58 215.199 197.423 215.442C197.266 215.685 197.145 215.978 197.059 216.322C196.978 216.661 196.937 217.042 196.937 217.467V217.77C196.937 218.129 196.985 218.463 197.081 218.771C197.183 219.075 197.329 219.34 197.522 219.567C197.714 219.795 197.947 219.975 198.22 220.106C198.494 220.232 198.805 220.295 199.154 220.295C199.595 220.295 199.987 220.207 200.331 220.03C200.675 219.853 200.974 219.603 201.227 219.279L202.191 220.212C202.014 220.47 201.784 220.718 201.5 220.955C201.217 221.188 200.87 221.377 200.46 221.524C200.055 221.671 199.584 221.744 199.048 221.744Z" fill="#49454F"/>
<mask id="mask0_7_3449" style="mask-type:luminance" maskUnits="userSpaceOnUse" x="118" y="252" width="125" height="105">
<path d="M242.488 252.654H118.098V356.192H242.488V252.654Z" fill="white"/>
</mask>
<g mask="url(#mask0_7_3449)">
<mask id="mask1_7_3449" style="mask-type:luminance" maskUnits="userSpaceOnUse" x="118" y="252" width="125" height="105">
<path d="M232.122 252.654H128.463C122.738 252.654 118.098 257.289 118.098 263.008V345.838C118.098 351.557 122.738 356.192 128.463 356.192H232.122C237.847 356.192 242.488 351.557 242.488 345.838V263.008C242.488 257.289 237.847 252.654 232.122 252.654Z" fill="white"/>
</mask>
<g mask="url(#mask1_7_3449)">
<path d="M232.122 252.654H128.463C122.738 252.654 118.098 257.289 118.098 263.008V345.838C118.098 351.557 122.738 356.192 128.463 356.192H232.122C237.847 356.192 242.488 351.557 242.488 345.838V263.008C242.488 257.289 237.847 252.654 232.122 252.654Z" fill="#EADDFF"/>
<path d="M176.073 298.612V306.608C176.073 310.907 175.689 314.534 174.919 317.487C174.15 320.44 173.044 322.818 171.602 324.618C170.159 326.42 168.416 327.728 166.372 328.545C164.353 329.337 162.069 329.734 159.521 329.734C157.501 329.734 155.638 329.482 153.931 328.977C152.224 328.474 150.685 327.669 149.315 326.563C147.968 325.435 146.814 323.971 145.853 322.17C144.891 320.368 144.158 318.183 143.653 315.613C143.148 313.044 142.896 310.043 142.896 306.608V298.612C142.896 294.313 143.28 290.711 144.049 287.805C144.843 284.9 145.961 282.57 147.403 280.817C148.846 279.04 150.577 277.767 152.596 276.999C154.64 276.231 156.924 275.846 159.448 275.846C161.492 275.846 163.367 276.098 165.074 276.603C166.805 277.083 168.344 277.864 169.69 278.944C171.036 280.001 172.179 281.418 173.116 283.195C174.078 284.948 174.811 287.097 175.316 289.642C175.821 292.188 176.073 295.178 176.073 298.612ZM169.366 307.688V297.495C169.366 295.142 169.221 293.076 168.933 291.299C168.668 289.498 168.272 287.961 167.743 286.689C167.214 285.416 166.541 284.383 165.723 283.591C164.93 282.798 164.004 282.222 162.946 281.862C161.913 281.478 160.747 281.286 159.448 281.286C157.862 281.286 156.455 281.586 155.229 282.186C154.003 282.762 152.969 283.687 152.128 284.96C151.31 286.232 150.685 287.901 150.252 289.967C149.82 292.032 149.603 294.541 149.603 297.495V307.688C149.603 310.043 149.735 312.12 150 313.92C150.288 315.722 150.709 317.283 151.262 318.604C151.815 319.899 152.488 320.969 153.282 321.81C154.075 322.65 154.989 323.274 156.022 323.683C157.08 324.067 158.246 324.258 159.521 324.258C161.155 324.258 162.586 323.947 163.812 323.323C165.038 322.698 166.06 321.726 166.877 320.404C167.719 319.06 168.344 317.342 168.753 315.253C169.161 313.14 169.366 310.619 169.366 307.688ZM218.592 276.567V280.313L196.846 329.013H189.813L211.523 282.042H183.106V276.567H218.592Z" fill="#21005D"/>
</g>
</g>
<path d="M253.889 325.483C253.889 324.354 254.238 323.406 254.935 322.638C255.656 321.845 256.69 321.449 258.037 321.449C259.383 321.449 260.405 321.845 261.102 322.638C261.823 323.406 262.184 324.354 262.184 325.483C262.184 326.588 261.823 327.525 261.102 328.293C260.405 329.061 259.383 329.446 258.037 329.446C256.69 329.446 255.656 329.061 254.935 328.293C254.238 327.525 253.889 326.588 253.889 325.483ZM253.925 293.677C253.925 292.548 254.274 291.6 254.971 290.831C255.693 290.039 256.727 289.642 258.073 289.642C259.419 289.642 260.44 290.039 261.139 290.831C261.859 291.6 262.221 292.548 262.221 293.677C262.221 294.781 261.859 295.718 261.139 296.486C260.44 297.255 259.419 297.639 258.073 297.639C256.727 297.639 255.693 297.255 254.971 296.486C254.274 295.718 253.925 294.781 253.925 293.677Z" fill="#1D1B20"/>
<mask id="mask2_7_3449" style="mask-type:luminance" maskUnits="userSpaceOnUse" x="273" y="252" width="125" height="105">
<path d="M387.61 252.654H283.951C278.226 252.654 273.585 257.289 273.585 263.008V345.838C273.585 351.557 278.226 356.192 283.951 356.192H387.61C393.335 356.192 397.976 351.557 397.976 345.838V263.008C397.976 257.289 393.335 252.654 387.61 252.654Z" fill="white"/>
</mask>
<g mask="url(#mask2_7_3449)">
<mask id="mask3_7_3449" style="mask-type:luminance" maskUnits="userSpaceOnUse" x="273" y="252" width="125" height="105">
<path d="M397.976 252.654H273.585V356.192H397.976V252.654Z" fill="white"/>
</mask>
<g mask="url(#mask3_7_3449)">
<path d="M397.976 252.654H273.585V356.192H397.976V252.654Z" fill="#E6E0E9"/>
<path d="M331.562 298.612V306.608C331.562 310.907 331.177 314.534 330.407 317.487C329.637 320.44 328.532 322.818 327.089 324.618C325.647 326.42 323.904 327.728 321.86 328.545C319.84 329.337 317.557 329.734 315.009 329.734C312.989 329.734 311.125 329.482 309.419 328.977C307.711 328.474 306.173 327.669 304.802 326.563C303.456 325.435 302.303 323.971 301.34 322.17C300.379 320.368 299.645 318.183 299.141 315.613C298.636 313.044 298.383 310.043 298.383 306.608V298.612C298.383 294.313 298.768 290.711 299.538 287.805C300.331 284.9 301.449 282.57 302.891 280.817C304.333 279.04 306.064 277.767 308.084 276.999C310.128 276.231 312.412 275.846 314.936 275.846C316.979 275.846 318.856 276.098 320.562 276.603C322.293 277.083 323.831 277.864 325.178 278.944C326.524 280.001 327.667 281.418 328.603 283.195C329.566 284.948 330.3 287.097 330.804 289.642C331.309 292.188 331.562 295.178 331.562 298.612ZM324.854 307.688V297.495C324.854 295.142 324.71 293.076 324.421 291.299C324.156 289.498 323.76 287.961 323.23 286.689C322.701 285.416 322.029 284.383 321.211 283.591C320.418 282.798 319.492 282.222 318.435 281.862C317.401 281.478 316.234 281.286 314.936 281.286C313.349 281.286 311.943 281.586 310.717 282.186C309.49 282.762 308.457 283.687 307.615 284.96C306.798 286.232 306.173 287.901 305.74 289.967C305.307 292.032 305.091 294.541 305.091 297.495V307.688C305.091 310.043 305.223 312.12 305.488 313.92C305.777 315.722 306.196 317.283 306.75 318.604C307.303 319.899 307.977 320.969 308.77 321.81C309.563 322.65 310.476 323.274 311.51 323.683C312.567 324.067 313.734 324.258 315.009 324.258C316.643 324.258 318.073 323.947 319.3 323.323C320.526 322.698 321.548 321.726 322.364 320.404C323.207 319.06 323.831 317.342 324.241 315.253C324.649 313.14 324.854 310.619 324.854 307.688ZM373.105 298.612V306.608C373.105 310.907 372.721 314.534 371.952 317.487C371.182 320.44 370.076 322.818 368.634 324.618C367.192 326.42 365.448 327.728 363.404 328.545C361.385 329.337 359.101 329.734 356.552 329.734C354.534 329.734 352.67 329.482 350.963 328.977C349.256 328.474 347.717 327.669 346.347 326.563C345.001 325.435 343.846 323.971 342.885 322.17C341.924 320.368 341.19 318.183 340.685 315.613C340.181 313.044 339.928 310.043 339.928 306.608V298.612C339.928 294.313 340.313 290.711 341.081 287.805C341.876 284.9 342.993 282.57 344.436 280.817C345.878 279.04 347.609 277.767 349.629 276.999C351.673 276.231 353.956 275.846 356.481 275.846C358.524 275.846 360.399 276.098 362.106 276.603C363.837 277.083 365.376 277.864 366.723 278.944C368.069 280.001 369.21 281.418 370.148 283.195C371.11 284.948 371.843 287.097 372.349 289.642C372.853 292.188 373.105 295.178 373.105 298.612ZM366.397 307.688V297.495C366.397 295.142 366.254 293.076 365.965 291.299C365.7 289.498 365.304 287.961 364.775 286.689C364.246 285.416 363.573 284.383 362.755 283.591C361.962 282.798 361.037 282.222 359.978 281.862C358.944 281.478 357.779 281.286 356.481 281.286C354.894 281.286 353.488 281.586 352.261 282.186C351.035 282.762 350.001 283.687 349.16 284.96C348.343 286.232 347.717 287.901 347.284 289.967C346.851 292.032 346.635 294.541 346.635 297.495V307.688C346.635 310.043 346.767 312.12 347.033 313.92C347.32 315.722 347.741 317.283 348.295 318.604C348.847 319.899 349.52 320.969 350.313 321.81C351.108 322.65 352.021 323.274 353.055 323.683C354.113 324.067 355.279 324.258 356.552 324.258C358.188 324.258 359.618 323.947 360.844 323.323C362.071 322.698 363.092 321.726 363.91 320.404C364.75 319.06 365.376 317.342 365.784 315.253C366.194 313.14 366.397 310.619 366.397 307.688Z" fill="#1D1B20"/>
</g>
</g>
<mask id="mask4_7_3449" style="mask-type:luminance" maskUnits="userSpaceOnUse" x="413" y="252" width="68" height="105">
<path d="M470.537 252.654H423.89C418.165 252.654 413.524 257.289 413.524 263.008V345.838C413.524 351.557 418.165 356.192 423.89 356.192H470.537C476.261 356.192 480.902 351.557 480.902 345.838V263.008C480.902 257.289 476.261 252.654 470.537 252.654Z" fill="white"/>
</mask>
<g mask="url(#mask4_7_3449)">
<path d="M470.537 252.654H423.89C418.165 252.654 413.524 257.289 413.524 263.008V345.838C413.524 351.557 418.165 356.192 423.89 356.192H470.537C476.261 356.192 480.902 351.557 480.902 345.838V263.008C480.902 257.289 476.261 252.654 470.537 252.654Z" fill="#ECE6F0"/>
<path d="M413.524 252.654H480.902V304.423H413.524V252.654Z" fill="#FFD8E4"/>
<path d="M438.41 272.249L434.007 285.01H431.345L436.892 270.288H438.593L438.41 272.249ZM442.095 285.01L437.682 272.249L437.489 270.288H439.201L444.768 285.01H442.095ZM441.883 279.549V281.562H433.865V279.549H441.883ZM447.645 270.288H449.912L454.174 281.643L458.425 270.288H460.693L455.064 285.01H453.263L447.645 270.288ZM446.612 270.288H448.768L449.143 280.116V285.01H446.612V270.288ZM459.57 270.288H461.736V285.01H459.195V280.116L459.57 270.288Z" fill="#31111D"/>
<path d="M480.902 303.776H413.524V305.07H480.902V303.776Z" fill="#79747E"/>
<path d="M438.522 331.289H434.685V329.276H438.522C439.19 329.276 439.729 329.169 440.141 328.953C440.553 328.736 440.854 328.44 441.043 328.063C441.239 327.679 441.336 327.24 441.336 326.748C441.336 326.284 441.239 325.849 441.043 325.444C440.854 325.032 440.553 324.702 440.141 324.454C439.729 324.204 439.19 324.08 438.522 324.08H435.465V336.779H432.924V322.057H438.522C439.662 322.057 440.631 322.259 441.427 322.664C442.23 323.061 442.842 323.614 443.259 324.322C443.677 325.023 443.887 325.824 443.887 326.728C443.887 327.679 443.677 328.494 443.259 329.175C442.842 329.856 442.23 330.379 441.427 330.742C440.631 331.106 439.662 331.289 438.522 331.289ZM447.391 322.057H449.658L453.921 333.411L458.173 322.057H460.44L454.812 336.779H453.009L447.391 322.057ZM446.36 322.057H448.516L448.89 331.885V336.779H446.36V322.057ZM459.317 322.057H461.482V336.779H458.942V331.885L459.317 322.057Z" fill="#49454F"/>
<path d="M413.524 305.07H480.902V303.776H413.524V305.07Z" fill="#79747E"/>
</g>
<path d="M470.537 253.301H423.89C418.523 253.301 414.172 257.647 414.172 263.008V345.839C414.172 351.199 418.523 355.545 423.89 355.545H470.537C475.904 355.545 480.255 351.199 480.255 345.839V263.008C480.255 257.647 475.904 253.301 470.537 253.301Z" stroke="#79747E"/>
<path d="M465.354 568.446C465.354 476.954 391.098 402.785 299.5 402.785C207.902 402.785 133.646 476.954 133.646 568.446C133.646 659.939 207.902 734.108 299.5 734.108C391.098 734.108 465.354 659.939 465.354 568.446Z" fill="#E6E0E9"/>
<path d="M304.035 568.446C304.035 565.945 302.005 563.916 299.5 563.916C296.995 563.916 294.965 565.945 294.965 568.446C294.965 570.948 296.995 572.976 299.5 572.976C302.005 572.976 304.035 570.948 304.035 568.446Z" fill="#6750A4" stroke="#6750A4"/>
<path d="M294.894 428.102V442.906H293.021V430.438L289.246 431.814V430.125L294.601 428.102H294.894ZM310.705 441.368V442.906H301.059V441.561L305.888 436.191C306.481 435.531 306.94 434.972 307.264 434.514C307.594 434.048 307.824 433.634 307.952 433.27C308.088 432.899 308.155 432.522 308.155 432.138C308.155 431.652 308.054 431.214 307.851 430.823C307.655 430.425 307.365 430.108 306.98 429.873C306.597 429.636 306.13 429.518 305.583 429.518C304.929 429.518 304.382 429.646 303.944 429.903C303.512 430.152 303.188 430.503 302.973 430.955C302.756 431.406 302.649 431.925 302.649 432.512H300.775C300.775 431.682 300.958 430.924 301.322 430.236C301.687 429.549 302.226 429.003 302.941 428.598C303.657 428.188 304.538 427.982 305.583 427.982C306.515 427.982 307.312 428.146 307.973 428.478C308.634 428.801 309.14 429.259 309.491 429.852C309.849 430.438 310.028 431.126 310.028 431.915C310.028 432.346 309.954 432.785 309.805 433.229C309.664 433.667 309.464 434.106 309.208 434.544C308.958 434.982 308.665 435.413 308.327 435.838C307.996 436.262 307.642 436.68 307.264 437.092L303.316 441.368H310.705Z" fill="#1D1B20"/>
<path d="M230.107 446.222V461.025H228.235V448.558L224.459 449.934V448.245L229.814 446.222H230.107ZM242.417 446.222V461.025H240.544V448.558L236.768 449.934V448.245L242.124 446.222H242.417Z" fill="#1D1B20"/>
<path d="M180.87 495.402V510.206H178.997V497.738L175.221 499.114V497.425L180.576 495.402H180.87ZM196.277 501.672V503.917C196.277 505.123 196.169 506.141 195.953 506.97C195.737 507.8 195.426 508.466 195.022 508.972C194.617 509.478 194.127 509.845 193.554 510.074C192.987 510.296 192.346 510.408 191.63 510.408C191.063 510.408 190.541 510.338 190.061 510.195C189.582 510.054 189.15 509.828 188.766 509.519C188.388 509.201 188.064 508.79 187.794 508.285C187.524 507.779 187.318 507.166 187.176 506.445C187.035 505.723 186.964 504.88 186.964 503.917V501.672C186.964 500.465 187.072 499.455 187.288 498.638C187.51 497.823 187.824 497.169 188.229 496.677C188.634 496.178 189.12 495.82 189.687 495.606C190.26 495.389 190.901 495.282 191.61 495.282C192.184 495.282 192.71 495.352 193.189 495.494C193.675 495.629 194.107 495.848 194.485 496.152C194.863 496.448 195.183 496.845 195.447 497.344C195.717 497.837 195.922 498.44 196.064 499.154C196.206 499.869 196.277 500.707 196.277 501.672ZM194.394 504.22V501.358C194.394 500.698 194.353 500.119 194.272 499.619C194.198 499.114 194.087 498.682 193.938 498.325C193.79 497.968 193.601 497.678 193.372 497.455C193.149 497.234 192.889 497.072 192.592 496.97C192.302 496.862 191.974 496.808 191.61 496.808C191.165 496.808 190.77 496.893 190.426 497.062C190.082 497.223 189.791 497.482 189.555 497.839C189.326 498.197 189.15 498.665 189.029 499.245C188.907 499.825 188.847 500.529 188.847 501.358V504.22C188.847 504.88 188.884 505.464 188.958 505.97C189.039 506.475 189.157 506.913 189.312 507.283C189.467 507.647 189.656 507.947 189.879 508.184C190.102 508.42 190.358 508.594 190.648 508.71C190.945 508.817 191.273 508.871 191.63 508.871C192.089 508.871 192.491 508.783 192.835 508.609C193.179 508.433 193.466 508.16 193.695 507.789C193.932 507.412 194.107 506.93 194.222 506.344C194.336 505.75 194.394 505.042 194.394 504.22Z" fill="#1D1B20"/>
<path d="M164.592 573.35H164.784C165.864 573.35 166.742 573.199 167.416 572.896C168.091 572.592 168.611 572.184 168.975 571.672C169.34 571.159 169.589 570.583 169.724 569.942C169.859 569.295 169.927 568.631 169.927 567.951V565.696C169.927 565.028 169.849 564.435 169.694 563.916C169.545 563.397 169.336 562.963 169.066 562.612C168.803 562.261 168.503 561.996 168.165 561.813C167.828 561.631 167.47 561.54 167.092 561.54C166.661 561.54 166.272 561.628 165.928 561.803C165.591 561.971 165.304 562.211 165.068 562.521C164.838 562.831 164.663 563.196 164.541 563.614C164.42 564.032 164.359 564.486 164.359 564.978C164.359 565.416 164.413 565.841 164.521 566.253C164.629 566.663 164.795 567.034 165.017 567.364C165.24 567.694 165.517 567.957 165.847 568.153C166.185 568.341 166.58 568.436 167.032 568.436C167.45 568.436 167.841 568.356 168.206 568.194C168.577 568.024 168.904 567.799 169.188 567.516C169.478 567.226 169.707 566.9 169.876 566.535C170.052 566.171 170.153 565.791 170.18 565.393H171.071C171.071 565.952 170.959 566.505 170.737 567.051C170.521 567.591 170.217 568.083 169.826 568.527C169.434 568.972 168.975 569.329 168.449 569.599C167.922 569.862 167.349 569.993 166.728 569.993C165.999 569.993 165.368 569.852 164.835 569.568C164.302 569.285 163.863 568.908 163.519 568.436C163.182 567.965 162.929 567.438 162.76 566.858C162.598 566.272 162.517 565.679 162.517 565.079C162.517 564.379 162.615 563.721 162.81 563.108C163.006 562.494 163.296 561.954 163.681 561.49C164.066 561.017 164.541 560.651 165.108 560.387C165.682 560.124 166.343 559.994 167.092 559.994C167.936 559.994 168.655 560.162 169.249 560.498C169.842 560.836 170.325 561.288 170.696 561.853C171.074 562.42 171.351 563.057 171.526 563.765C171.702 564.473 171.789 565.2 171.789 565.948V566.627C171.789 567.388 171.739 568.163 171.638 568.952C171.543 569.734 171.358 570.482 171.081 571.197C170.811 571.911 170.416 572.552 169.896 573.117C169.377 573.678 168.699 574.121 167.862 574.453C167.032 574.776 166.006 574.938 164.784 574.938H164.592V573.35Z" fill="#1D1B20"/>
<path d="M190.163 635.645C190.163 636.542 189.953 637.303 189.535 637.931C189.123 638.551 188.563 639.022 187.854 639.345C187.153 639.669 186.36 639.831 185.476 639.831C184.592 639.831 183.795 639.669 183.087 639.345C182.378 639.022 181.818 638.551 181.406 637.931C180.995 637.303 180.789 636.542 180.789 635.645C180.789 635.059 180.9 634.523 181.123 634.038C181.352 633.545 181.673 633.118 182.084 632.754C182.503 632.389 182.995 632.109 183.562 631.914C184.136 631.712 184.767 631.611 185.455 631.611C186.36 631.611 187.166 631.786 187.875 632.137C188.583 632.481 189.14 632.956 189.545 633.562C189.957 634.169 190.163 634.863 190.163 635.645ZM188.28 635.605C188.28 635.059 188.162 634.576 187.925 634.158C187.689 633.734 187.358 633.404 186.933 633.168C186.508 632.933 186.016 632.813 185.455 632.813C184.882 632.813 184.386 632.933 183.967 633.168C183.556 633.404 183.235 633.734 183.006 634.158C182.776 634.576 182.661 635.059 182.661 635.605C182.661 636.171 182.773 636.656 182.995 637.061C183.225 637.458 183.549 637.765 183.967 637.981C184.393 638.19 184.895 638.295 185.476 638.295C186.056 638.295 186.555 638.19 186.974 637.981C187.392 637.765 187.713 637.458 187.935 637.061C188.165 636.656 188.28 636.171 188.28 635.605ZM189.818 628.739C189.818 629.454 189.629 630.097 189.252 630.67C188.874 631.244 188.357 631.695 187.703 632.025C187.048 632.355 186.306 632.521 185.476 632.521C184.632 632.521 183.88 632.355 183.218 632.025C182.564 631.695 182.051 631.244 181.68 630.67C181.308 630.097 181.123 629.454 181.123 628.739C181.123 627.882 181.308 627.155 181.68 626.555C182.057 625.955 182.574 625.497 183.228 625.18C183.883 624.863 184.629 624.705 185.466 624.705C186.309 624.705 187.058 624.863 187.713 625.18C188.367 625.497 188.88 625.955 189.252 626.555C189.629 627.155 189.818 627.882 189.818 628.739ZM187.946 628.769C187.946 628.277 187.841 627.842 187.632 627.466C187.423 627.088 187.132 626.791 186.761 626.575C186.39 626.353 185.958 626.241 185.466 626.241C184.973 626.241 184.541 626.346 184.17 626.555C183.805 626.758 183.519 627.048 183.309 627.424C183.107 627.802 183.006 628.25 183.006 628.769C183.006 629.275 183.107 629.716 183.309 630.094C183.519 630.471 183.809 630.765 184.18 630.973C184.551 631.183 184.983 631.288 185.476 631.288C185.968 631.288 186.397 631.183 186.761 630.973C187.132 630.765 187.423 630.471 187.632 630.094C187.841 629.716 187.946 629.275 187.946 628.769Z" fill="#1D1B20"/>
<path d="M299.026 568.446L231.648 685.013" stroke="#6750A4" stroke-width="2"/>
<mask id="mask5_7_3449" style="mask-type:luminance" maskUnits="userSpaceOnUse" x="203" y="651" width="63" height="63">
<path d="M265.811 682.338C265.811 665.184 251.888 651.277 234.713 651.277C217.539 651.277 203.616 665.184 203.616 682.338C203.616 699.493 217.539 713.4 234.713 713.4C251.888 713.4 265.811 699.493 265.811 682.338Z" fill="white"/>
</mask>
<g mask="url(#mask5_7_3449)">
<path d="M265.811 682.338C265.811 665.184 251.888 651.277 234.713 651.277C217.539 651.277 203.616 665.184 203.616 682.338C203.616 699.493 217.539 713.4 234.713 713.4C251.888 713.4 265.811 699.493 265.811 682.338Z" fill="#6750A4"/>
<path d="M239.633 674.088V675.14L233.529 688.81H231.554L237.65 675.624H229.672V674.088H239.633Z" fill="white"/>
</g>
<path d="M302.081 692.186H302.243V693.774H302.081C301.09 693.774 300.259 693.936 299.591 694.26C298.923 694.577 298.393 695.004 298.002 695.544C297.611 696.077 297.327 696.676 297.152 697.344C296.982 698.01 296.898 698.688 296.898 699.376V701.54C296.898 702.193 296.976 702.773 297.131 703.279C297.287 703.777 297.499 704.199 297.769 704.542C298.038 704.887 298.343 705.145 298.68 705.321C299.024 705.496 299.382 705.584 299.753 705.584C300.185 705.584 300.57 705.503 300.907 705.341C301.244 705.173 301.528 704.941 301.757 704.643C301.993 704.34 302.172 703.983 302.294 703.572C302.415 703.161 302.476 702.71 302.476 702.217C302.476 701.779 302.422 701.357 302.314 700.953C302.207 700.542 302.041 700.178 301.818 699.861C301.595 699.538 301.315 699.285 300.978 699.103C300.647 698.914 300.253 698.819 299.794 698.819C299.275 698.819 298.789 698.947 298.336 699.204C297.891 699.453 297.523 699.783 297.232 700.195C296.949 700.599 296.787 701.041 296.747 701.519L295.754 701.509C295.849 700.754 296.025 700.111 296.281 699.578C296.544 699.039 296.868 698.6 297.253 698.264C297.645 697.92 298.08 697.67 298.558 697.516C299.044 697.354 299.557 697.273 300.097 697.273C300.833 697.273 301.467 697.411 302.001 697.687C302.533 697.964 302.973 698.334 303.316 698.8C303.661 699.258 303.913 699.777 304.075 700.357C304.244 700.93 304.329 701.519 304.329 702.126C304.329 702.821 304.231 703.471 304.035 704.078C303.839 704.685 303.545 705.217 303.154 705.675C302.769 706.133 302.294 706.49 301.727 706.746C301.16 707.003 300.502 707.131 299.753 707.131C298.957 707.131 298.261 706.969 297.668 706.645C297.074 706.315 296.581 705.878 296.189 705.332C295.798 704.786 295.505 704.179 295.31 703.511C295.114 702.844 295.015 702.166 295.015 701.479V700.599C295.015 699.561 295.12 698.544 295.329 697.546C295.539 696.548 295.899 695.644 296.412 694.836C296.932 694.027 297.651 693.383 298.568 692.905C299.487 692.426 300.657 692.186 302.081 692.186Z" fill="#1D1B20"/>
<path d="M362.049 681.803L360.551 681.418L361.291 674.088H368.851V675.817H362.879L362.434 679.821C362.705 679.666 363.045 679.521 363.456 679.386C363.875 679.252 364.354 679.183 364.894 679.183C365.576 679.183 366.186 679.302 366.726 679.538C367.265 679.767 367.725 680.097 368.103 680.529C368.487 680.96 368.781 681.479 368.984 682.086C369.186 682.692 369.287 683.37 369.287 684.118C369.287 684.826 369.19 685.476 368.994 686.07C368.805 686.662 368.518 687.181 368.134 687.627C367.749 688.064 367.263 688.406 366.676 688.648C366.095 688.89 365.41 689.011 364.621 689.011C364.026 689.011 363.464 688.931 362.93 688.769C362.404 688.601 361.931 688.347 361.512 688.011C361.102 687.667 360.763 687.242 360.5 686.736C360.244 686.225 360.082 685.624 360.015 684.937H361.796C361.878 685.49 362.04 685.954 362.282 686.332C362.526 686.71 362.842 686.996 363.234 687.192C363.632 687.381 364.095 687.475 364.621 687.475C365.067 687.475 365.461 687.398 365.805 687.242C366.15 687.087 366.439 686.864 366.676 686.574C366.912 686.284 367.091 685.935 367.212 685.523C367.341 685.112 367.404 684.65 367.404 684.139C367.404 683.673 367.341 683.242 367.212 682.844C367.084 682.446 366.891 682.099 366.634 681.803C366.386 681.506 366.079 681.277 365.714 681.115C365.349 680.946 364.931 680.862 364.459 680.862C363.83 680.862 363.355 680.946 363.031 681.115C362.714 681.284 362.387 681.513 362.049 681.803Z" fill="#1D1B20"/>
<path d="M418.88 634.675V636.211H408.23V635.109L414.83 624.907H416.359L414.719 627.859L410.356 634.675H418.88ZM416.825 624.907V639.629H414.952V624.907H416.825Z" fill="#1D1B20"/>
<path d="M429.792 566.637H431.128C431.783 566.637 432.323 566.528 432.748 566.313C433.179 566.091 433.501 565.791 433.709 565.413C433.926 565.028 434.033 564.597 434.033 564.118C434.033 563.553 433.939 563.078 433.749 562.693C433.562 562.309 433.278 562.019 432.899 561.824C432.521 561.628 432.043 561.53 431.463 561.53C430.936 561.53 430.47 561.635 430.066 561.843C429.667 562.046 429.353 562.336 429.124 562.713C428.901 563.091 428.789 563.536 428.789 564.048H426.917C426.917 563.299 427.106 562.618 427.483 562.005C427.862 561.391 428.392 560.903 429.073 560.54C429.761 560.175 430.558 559.994 431.463 559.994C432.353 559.994 433.133 560.152 433.8 560.469C434.469 560.779 434.988 561.244 435.36 561.864C435.731 562.477 435.916 563.242 435.916 564.16C435.916 564.53 435.829 564.927 435.653 565.352C435.484 565.77 435.218 566.161 434.853 566.526C434.496 566.889 434.031 567.19 433.457 567.425C432.883 567.654 432.195 567.769 431.391 567.769H429.792V566.637ZM429.792 568.173V567.051H431.391C432.329 567.051 433.105 567.162 433.72 567.385C434.334 567.608 434.816 567.904 435.167 568.274C435.525 568.646 435.775 569.053 435.916 569.497C436.065 569.936 436.139 570.375 436.139 570.812C436.139 571.499 436.021 572.11 435.785 572.642C435.556 573.175 435.228 573.627 434.803 573.997C434.384 574.369 433.892 574.648 433.324 574.837C432.758 575.025 432.14 575.119 431.473 575.119C430.831 575.119 430.228 575.029 429.66 574.846C429.1 574.665 428.604 574.402 428.173 574.058C427.74 573.707 427.403 573.279 427.159 572.774C426.917 572.262 426.795 571.678 426.795 571.024H428.669C428.669 571.537 428.779 571.985 429.002 572.369C429.231 572.753 429.555 573.054 429.974 573.27C430.399 573.478 430.899 573.583 431.473 573.583C432.046 573.583 432.538 573.485 432.95 573.289C433.369 573.087 433.689 572.785 433.911 572.379C434.141 571.976 434.256 571.466 434.256 570.852C434.256 570.239 434.128 569.737 433.871 569.346C433.615 568.948 433.251 568.655 432.778 568.467C432.313 568.272 431.763 568.173 431.128 568.173H429.792Z" fill="#1D1B20"/>
<path d="M418.575 508.668V510.206H408.928V508.861L413.758 503.491C414.351 502.831 414.81 502.272 415.134 501.814C415.464 501.348 415.693 500.934 415.822 500.57C415.958 500.199 416.025 499.822 416.025 499.438C416.025 498.952 415.924 498.514 415.721 498.123C415.525 497.725 415.235 497.408 414.85 497.173C414.466 496.936 414 496.818 413.453 496.818C412.799 496.818 412.252 496.946 411.814 497.203C411.381 497.452 411.057 497.803 410.842 498.255C410.626 498.707 410.518 499.226 410.518 499.812H408.645C408.645 498.982 408.827 498.224 409.191 497.537C409.557 496.849 410.096 496.303 410.811 495.898C411.526 495.488 412.407 495.282 413.453 495.282C414.385 495.282 415.182 495.446 415.842 495.778C416.503 496.101 417.01 496.559 417.361 497.152C417.719 497.738 417.897 498.426 417.897 499.215C417.897 499.646 417.824 500.085 417.675 500.529C417.533 500.968 417.334 501.406 417.077 501.844C416.827 502.282 416.534 502.713 416.196 503.138C415.866 503.562 415.512 503.981 415.134 504.392L411.186 508.668H418.575Z" fill="#1D1B20"/>
<path d="M365.835 446.222V461.025H363.963V448.558L360.187 449.934V448.245L365.542 446.222H365.835Z" fill="#1D1B20"/>
<mask id="mask6_7_3449" style="mask-type:luminance" maskUnits="userSpaceOnUse" x="107" y="765" width="53" height="52">
<path d="M159.561 791.054C159.561 776.758 147.959 765.169 133.646 765.169C119.334 765.169 107.732 776.758 107.732 791.054C107.732 805.349 119.334 816.938 133.646 816.938C147.959 816.938 159.561 805.349 159.561 791.054Z" fill="white"/>
</mask>
<g mask="url(#mask6_7_3449)">
<path fill-rule="evenodd" clip-rule="evenodd" d="M144.012 781.994H123.28C121.855 781.994 120.702 783.159 120.702 784.583L120.689 797.525C120.689 798.949 121.855 800.113 123.28 800.113H144.012C145.438 800.113 146.604 798.949 146.604 797.525V784.583C146.604 783.159 145.438 781.994 144.012 781.994ZM144.012 784.583V797.525H123.28V784.583H144.012ZM134.942 785.877H132.351V788.465H134.942V785.877ZM132.351 789.76H134.942V792.348H132.351V789.76ZM131.055 785.877H128.463V788.465H131.055V785.877ZM128.463 789.76H131.055V792.348H128.463V789.76ZM127.168 789.76H124.576V792.348H127.168V789.76ZM124.576 785.877H127.168V788.465H124.576V785.877ZM138.829 793.642H128.463V796.231H138.829V793.642ZM136.238 789.76H138.829V792.348H136.238V789.76ZM138.829 785.877H136.238V788.465H138.829V785.877ZM140.125 789.76H142.716V792.348H140.125V789.76ZM142.716 785.877H140.125V788.465H142.716V785.877Z" fill="#49454F"/>
</g>
<mask id="mask7_7_3449" style="mask-type:luminance" maskUnits="userSpaceOnUse" x="326" y="765" width="89" height="52">
<path d="M388.906 765.169H352.625C338.313 765.169 326.71 776.758 326.71 791.054C326.71 805.349 338.313 816.938 352.625 816.938H388.906C403.218 816.938 414.82 805.349 414.82 791.054C414.82 776.758 403.218 765.169 388.906 765.169Z" fill="white"/>
</mask>
<g mask="url(#mask7_7_3449)">
<path d="M351.592 793.332H353.807C353.735 794.174 353.5 794.927 353.098 795.587C352.696 796.242 352.133 796.759 351.407 797.135C350.68 797.513 349.798 797.702 348.759 797.702C347.96 797.702 347.244 797.56 346.605 797.278C345.968 796.988 345.422 796.581 344.967 796.056C344.512 795.525 344.164 794.886 343.922 794.137C343.686 793.387 343.568 792.55 343.568 791.623V790.553C343.568 789.628 343.688 788.79 343.931 788.041C344.178 787.291 344.533 786.652 344.993 786.12C345.454 785.584 346.006 785.174 346.65 784.891C347.3 784.609 348.029 784.466 348.838 784.466C349.865 784.466 350.733 784.655 351.442 785.033C352.151 785.41 352.7 785.933 353.089 786.599C353.485 787.266 353.728 788.029 353.816 788.89H351.601C351.542 788.336 351.412 787.861 351.211 787.466C351.017 787.07 350.727 786.77 350.343 786.563C349.96 786.351 349.458 786.244 348.838 786.244C348.33 786.244 347.887 786.339 347.509 786.528C347.131 786.717 346.815 786.994 346.561 787.36C346.307 787.725 346.115 788.177 345.986 788.713C345.861 789.244 345.799 789.851 345.799 790.536V791.623C345.799 792.273 345.856 792.862 345.968 793.394C346.085 793.918 346.263 794.37 346.499 794.748C346.741 795.124 347.048 795.417 347.42 795.622C347.793 795.83 348.239 795.933 348.759 795.933C349.39 795.933 349.9 795.832 350.29 795.631C350.687 795.431 350.985 795.14 351.185 794.755C351.391 794.367 351.528 793.892 351.592 793.332ZM361.147 795.606V791.04C361.147 790.698 361.085 790.403 360.96 790.156C360.836 789.907 360.647 789.716 360.394 789.58C360.145 789.445 359.833 789.377 359.455 789.377C359.106 789.377 358.806 789.436 358.552 789.554C358.298 789.672 358.099 789.831 357.958 790.031C357.816 790.232 357.746 790.458 357.746 790.712H355.619C355.619 790.336 355.711 789.969 355.894 789.616C356.077 789.261 356.342 788.946 356.691 788.669C357.04 788.392 357.456 788.173 357.94 788.014C358.425 787.854 358.968 787.776 359.57 787.776C360.291 787.776 360.928 787.896 361.483 788.138C362.044 788.38 362.484 788.745 362.803 789.235C363.128 789.718 363.29 790.326 363.29 791.058V795.313C363.29 795.749 363.32 796.141 363.378 796.49C363.443 796.833 363.535 797.13 363.653 797.384V797.525H361.466C361.365 797.295 361.286 797.003 361.226 796.649C361.173 796.289 361.147 795.941 361.147 795.606ZM361.457 791.704L361.474 793.022H359.942C359.547 793.022 359.198 793.06 358.896 793.136C358.596 793.207 358.344 793.314 358.144 793.455C357.943 793.597 357.792 793.768 357.693 793.968C357.592 794.169 357.541 794.396 357.541 794.649C357.541 794.903 357.601 795.136 357.719 795.348C357.836 795.555 358.007 795.717 358.233 795.835C358.462 795.952 358.74 796.012 359.065 796.012C359.501 796.012 359.882 795.924 360.208 795.747C360.538 795.564 360.798 795.343 360.988 795.083C361.176 794.817 361.277 794.568 361.288 794.331L361.979 795.278C361.908 795.52 361.787 795.779 361.616 796.056C361.445 796.333 361.221 796.6 360.942 796.852C360.672 797.1 360.344 797.304 359.96 797.463C359.582 797.622 359.145 797.702 358.649 797.702C358.023 797.702 357.465 797.578 356.975 797.331C356.485 797.077 356.1 796.738 355.823 796.312C355.546 795.883 355.407 795.396 355.407 794.854C355.407 794.346 355.502 793.897 355.691 793.508C355.885 793.113 356.169 792.783 356.541 792.518C356.919 792.252 357.379 792.052 357.922 791.916C358.466 791.775 359.086 791.704 359.783 791.704H361.457ZM367.768 789.996V797.525H365.634V787.953H367.645L367.768 789.996ZM367.387 792.384L366.697 792.375C366.703 791.697 366.798 791.076 366.98 790.509C367.17 789.943 367.429 789.457 367.759 789.049C368.096 788.643 368.498 788.329 368.964 788.112C369.431 787.887 369.95 787.776 370.523 787.776C370.984 787.776 371.4 787.84 371.772 787.97C372.15 788.094 372.472 788.297 372.737 788.581C373.009 788.864 373.215 789.232 373.358 789.686C373.499 790.135 373.571 790.686 373.571 791.341V797.525H371.427V791.332C371.427 790.871 371.359 790.509 371.223 790.244C371.093 789.972 370.901 789.78 370.647 789.669C370.4 789.551 370.089 789.492 369.717 789.492C369.352 789.492 369.024 789.568 368.734 789.722C368.445 789.875 368.2 790.084 367.999 790.35C367.805 790.615 367.653 790.922 367.547 791.27C367.44 791.618 367.387 791.99 367.387 792.384ZM379.794 796.003C380.142 796.003 380.455 795.936 380.733 795.8C381.016 795.659 381.244 795.463 381.415 795.216C381.592 794.968 381.69 794.682 381.708 794.358H383.717C383.706 794.977 383.523 795.54 383.168 796.047C382.814 796.554 382.345 796.958 381.761 797.26C381.175 797.555 380.529 797.702 379.82 797.702C379.088 797.702 378.45 797.578 377.907 797.331C377.364 797.077 376.912 796.729 376.552 796.286C376.192 795.844 375.92 795.334 375.737 794.755C375.559 794.178 375.471 793.558 375.471 792.898V792.589C375.471 791.927 375.559 791.309 375.737 790.73C375.92 790.147 376.192 789.633 376.552 789.191C376.912 788.749 377.364 788.403 377.907 788.156C378.45 787.902 379.085 787.776 379.812 787.776C380.579 787.776 381.253 787.928 381.831 788.235C382.41 788.537 382.865 788.958 383.195 789.501C383.532 790.038 383.706 790.663 383.717 791.376H381.708C381.69 791.023 381.6 790.703 381.441 790.421C381.288 790.131 381.069 789.902 380.786 789.731C380.508 789.559 380.175 789.474 379.785 789.474C379.353 789.474 378.997 789.563 378.713 789.739C378.43 789.911 378.208 790.147 378.049 790.447C377.889 790.742 377.774 791.076 377.704 791.447C377.639 791.812 377.605 792.193 377.605 792.589V792.898C377.605 793.293 377.639 793.676 377.704 794.047C377.769 794.42 377.88 794.753 378.039 795.048C378.205 795.336 378.43 795.569 378.713 795.747C378.997 795.918 379.357 796.003 379.794 796.003ZM389.711 797.702C389.003 797.702 388.361 797.587 387.789 797.357C387.222 797.121 386.738 796.794 386.336 796.374C385.941 795.956 385.636 795.463 385.424 794.898C385.211 794.331 385.105 793.721 385.105 793.066V792.712C385.105 791.962 385.214 791.284 385.433 790.677C385.652 790.07 385.955 789.551 386.345 789.12C386.735 788.684 387.195 788.35 387.726 788.12C388.259 787.891 388.834 787.776 389.454 787.776C390.139 787.776 390.739 787.891 391.252 788.12C391.766 788.35 392.191 788.675 392.528 789.093C392.87 789.506 393.124 789.999 393.289 790.571C393.461 791.143 393.547 791.775 393.547 792.465V793.376H386.142V791.845H391.439V791.676C391.427 791.293 391.349 790.933 391.208 790.597C391.072 790.262 390.862 789.99 390.58 789.784C390.296 789.577 389.917 789.474 389.446 789.474C389.091 789.474 388.775 789.551 388.497 789.704C388.227 789.851 387.998 790.066 387.816 790.35C387.633 790.633 387.491 790.975 387.391 791.376C387.296 791.771 387.248 792.216 387.248 792.712V793.066C387.248 793.484 387.305 793.874 387.417 794.234C387.535 794.587 387.706 794.898 387.931 795.163C388.155 795.428 388.426 795.638 388.746 795.791C389.065 795.938 389.428 796.012 389.835 796.012C390.349 796.012 390.806 795.908 391.208 795.703C391.61 795.496 391.958 795.204 392.254 794.827L393.378 795.915C393.171 796.215 392.903 796.505 392.572 796.782C392.241 797.053 391.836 797.274 391.358 797.445C390.887 797.617 390.337 797.702 389.711 797.702ZM397.626 783.936V797.525H395.483V783.936H397.626Z" fill="#6750A4"/>
</g>
<mask id="mask8_7_3449" style="mask-type:luminance" maskUnits="userSpaceOnUse" x="425" y="765" width="56" height="52">
<path d="M454.988 765.169H451.101C436.788 765.169 425.186 776.758 425.186 791.054C425.186 805.349 436.788 816.938 451.101 816.938H454.988C469.3 816.938 480.902 805.349 480.902 791.054C480.902 776.758 469.3 765.169 454.988 765.169Z" fill="white"/>
</mask>
<g mask="url(#mask8_7_3449)">
<path d="M452.589 790.73V791.438C452.589 792.411 452.462 793.284 452.208 794.056C451.955 794.829 451.592 795.486 451.119 796.03C450.652 796.572 450.091 796.988 449.437 797.278C448.781 797.56 448.054 797.702 447.257 797.702C446.466 797.702 445.743 797.56 445.087 797.278C444.438 796.988 443.874 796.572 443.396 796.03C442.917 795.486 442.545 794.829 442.279 794.056C442.02 793.284 441.889 792.411 441.889 791.438V790.73C441.889 789.757 442.02 788.887 442.279 788.12C442.54 787.347 442.905 786.69 443.378 786.147C443.856 785.599 444.42 785.183 445.07 784.9C445.725 784.611 446.449 784.466 447.239 784.466C448.037 784.466 448.763 784.611 449.419 784.9C450.074 785.183 450.638 785.599 451.111 786.147C451.583 786.69 451.945 787.347 452.199 788.12C452.46 788.887 452.589 789.757 452.589 790.73ZM450.366 791.438V790.712C450.366 789.992 450.296 789.358 450.153 788.811C450.019 788.256 449.814 787.792 449.543 787.421C449.278 787.044 448.95 786.761 448.56 786.572C448.17 786.378 447.73 786.281 447.239 786.281C446.75 786.281 446.313 786.378 445.929 786.572C445.545 786.761 445.217 787.044 444.946 787.421C444.68 787.792 444.476 788.256 444.334 788.811C444.193 789.358 444.122 789.992 444.122 790.712V791.438C444.122 792.158 444.193 792.794 444.334 793.348C444.476 793.904 444.683 794.372 444.955 794.755C445.232 795.133 445.563 795.419 445.946 795.613C446.33 795.802 446.768 795.897 447.257 795.897C447.754 795.897 448.193 795.802 448.578 795.613C448.961 795.419 449.285 795.133 449.551 794.755C449.818 794.372 450.019 793.904 450.153 793.348C450.296 792.794 450.366 792.158 450.366 791.438ZM457.166 784.643V797.525H454.942V784.643H457.166ZM464.916 784.643L459.69 790.845L456.714 793.994L456.324 791.791L458.45 789.173L462.206 784.643H464.916ZM462.525 797.525L458.282 791.42L459.814 789.907L465.164 797.525H462.525Z" fill="#6750A4"/>
</g>
</g>
<defs>
<clipPath id="clip0_7_3449">
<rect width="425" height="673" fill="white" transform="translate(87 175)"/>
</clipPath>
</defs>
</svg>
