<?xml version="1.0" encoding="UTF-8"?>
<svg width="330.29" height="327.19" version="1.1" viewBox="0 0 330.29 327.19" xml:space="preserve" xmlns="http://www.w3.org/2000/svg"><defs><clipPath id="clipPath16"><path d="m0 425.2h425.2v-425.2h-425.2z"/></clipPath></defs><g transform="matrix(1.3333 0 0 -1.3333 -118.32 447.06)"><g clip-path="url(#clipPath16)"><g transform="translate(246.9 255.91)"><path d="m0 0 0.032 17.02h11.832c4.5 0 8.161-3.662 8.161-8.164v-0.694c0-4.501-3.661-8.162-8.161-8.162zm-9.301-2.539-20.522-17.983v37.542h20.559zm89.558 9.555c0-32.857-26.733-59.589-59.591-59.589h-59.786v-38.378c0-22.129-18.003-40.131-40.131-40.131s-40.131 18.002-40.131 40.131v107.56h20.581v-108.86c0-10.863 8.838-19.7 19.701-19.7 10.471 0 19.061 8.211 19.665 18.535h0.059v137.53h73.647c19.366 0 35.122-15.756 35.122-35.122 0-19.367-15.756-35.122-35.123-35.122h-36.385l19.206 16.83h14.773c9.625 0 17.458 7.833 17.458 17.459v0.694c0 9.627-7.833 17.46-17.458 17.46h-50.984v-61.74h53.39c24.493 0 44.419 19.927 44.419 44.419s-19.926 44.418-44.418 44.418h-68.493l18.971 16.677h55.917c32.858 0 59.591-26.731 59.591-59.588zm-89.537-93.954c0-38.498-31.32-69.818-69.817-69.818-38.499 0-69.819 31.32-69.819 69.819v124.78l20.237-18.627v-110.17c0-27.254 22.174-49.427 49.428-49.427s49.428 22.173 49.428 49.427v29.082h20.543zm-96.574 112.84h-16.363l-19.436 17.888h16.811zm37.181 27.506v-146.16c-0.259-5.533-4.83-9.96-10.429-9.96-5.763 0-10.452 4.689-10.452 10.453v115.51l-31.618 29.787h-36.991v-140.07c0.048-43.557 35.497-78.977 79.066-78.978 43.566 0 79.015 35.421 79.064 78.978v25.156h20.699c37.984 0 68.887 30.902 68.887 68.885v3.486c0 37.983-30.903 68.885-68.887 68.885h-59.422z" fill="#fff"/></g></g></g></svg>
